<svg width="210" height="103" viewBox="0 0 210 103" fill="none" xmlns="http://www.w3.org/2000/svg">
<path d="M207.654 98.3273C207.654 99.641 206.6 100.611 205.426 100.537C197.845 100.062 193.558 98.2196 189.077 96.2936C188.723 96.1411 188.367 95.9881 188.008 95.8352C182.985 93.6957 177.556 91.6679 167.526 91.6679C156.75 91.6679 151.283 94.0106 145.964 96.2973L145.937 96.309C140.814 98.5117 135.83 100.654 125.724 100.654C115.619 100.654 110.636 98.5117 105.514 96.3091L105.486 96.2973C100.169 94.0106 94.7024 91.6679 83.9266 91.6679C73.1509 91.6679 67.6837 94.0106 62.3653 96.2973L62.3378 96.3091C57.2148 98.5117 52.2305 100.654 42.1252 100.654C32.6848 100.654 27.7133 98.7822 22.9547 96.755C22.5965 96.6024 22.2386 96.4484 21.8795 96.294C17.3384 94.3406 12.6032 92.3037 4.43743 91.7913C3.04011 91.7037 2 90.5944 2 89.3405V4.32734C2 3.01361 3.0543 2.04326 4.22793 2.1169C11.8071 2.59249 16.0932 4.43494 20.5733 6.36078C20.9282 6.51337 21.2844 6.66649 21.6436 6.81949C26.6658 8.95902 32.0949 10.9867 42.1252 10.9867C52.901 10.9867 58.3673 8.644 63.6854 6.35737L63.7123 6.3458C68.835 4.14313 73.8193 2 83.9266 2C94.0339 2 99.0173 4.14311 104.139 6.34574L104.166 6.35733C109.483 8.64399 114.949 10.9867 125.724 10.9867C136.5 10.9867 141.966 8.644 147.284 6.35737L147.311 6.34579C152.434 4.14313 157.418 2 167.526 2C176.968 2 181.939 3.8725 186.698 5.89973C187.056 6.05233 187.414 6.20625 187.773 6.36068C192.314 8.31413 197.05 10.351 205.217 10.8633C206.614 10.951 207.654 12.0602 207.654 13.3141V98.3273Z" fill="#1A023B" stroke="#FFC700" stroke-width="3.34532"/>
<path d="M57.6955 42.2809H47.5073L46.9157 50.3986H47.1458C47.4087 49.9385 47.6826 49.5331 47.9674 49.1826C48.2523 48.8101 48.5809 48.4924 48.9534 48.2295C49.3258 47.9666 49.7531 47.7694 50.2351 47.6379C50.7171 47.4845 51.2868 47.4079 51.9441 47.4079C52.9301 47.4079 53.8393 47.5722 54.6719 47.9008C55.5264 48.2295 56.2604 48.7006 56.8739 49.314C57.5093 49.9275 58.0023 50.6834 58.3528 51.5817C58.7034 52.4581 58.8787 53.4551 58.8787 54.5725C58.8787 55.7118 58.6924 56.7635 58.32 57.7275C57.9694 58.6916 57.4435 59.5242 56.7424 60.2253C56.0413 60.9045 55.1759 61.4413 54.1461 61.8357C53.1382 62.2081 51.9879 62.3944 50.6952 62.3944C49.6655 62.3944 48.7562 62.2739 47.9674 62.0329C47.1787 61.8138 46.4775 61.518 45.864 61.1455C45.2725 60.7511 44.7466 60.3129 44.2865 59.8309C43.8483 59.327 43.4539 58.8121 43.1034 58.2862L45.7983 56.15C46.0831 56.6101 46.3789 57.0264 46.6857 57.3989C46.9924 57.7713 47.343 58.1 47.7374 58.3848C48.1317 58.6697 48.5699 58.8888 49.052 59.0421C49.5559 59.1955 50.1256 59.2722 50.761 59.2722C52.1194 59.2722 53.1601 58.8997 53.8832 58.1548C54.6281 57.4098 55.0006 56.3801 55.0006 55.0654V54.6711C55.0006 53.3565 54.6281 52.3267 53.8832 51.5817C53.1601 50.8368 52.1194 50.4643 50.761 50.4643C49.775 50.4643 48.9862 50.6506 48.3947 51.023C47.8031 51.3955 47.2992 51.8118 46.8829 52.2719L43.8264 51.8447L44.6809 39.0601H57.6955V42.2809ZM70.5658 62.3944C69.1417 62.3944 67.9037 62.1315 66.8521 61.6056C65.8004 61.0579 64.9349 60.2801 64.2557 59.2722C63.5765 58.2643 63.0726 57.0264 62.7439 55.5584C62.4153 54.0904 62.2509 52.4143 62.2509 50.5301C62.2509 48.6677 62.4153 47.0025 62.7439 45.5345C63.0726 44.0447 63.5765 42.7958 64.2557 41.7879C64.9349 40.78 65.8004 40.0132 66.8521 39.4873C67.9037 38.9396 69.1417 38.6657 70.5658 38.6657C73.4141 38.6657 75.5066 39.7064 76.8431 41.7879C78.2015 43.8694 78.8807 46.7834 78.8807 50.5301C78.8807 54.2767 78.2015 57.1907 76.8431 59.2722C75.5066 61.3537 73.4141 62.3944 70.5658 62.3944ZM70.5658 59.2393C71.3546 59.2393 72.0229 59.086 72.5706 58.7792C73.1403 58.4506 73.6004 57.9904 73.9509 57.3989C74.3015 56.8073 74.5535 56.1062 74.7068 55.2955C74.8602 54.4629 74.9369 53.5427 74.9369 52.5348V48.5253C74.9369 47.5174 74.8602 46.6081 74.7068 45.7975C74.5535 44.9649 74.3015 44.2528 73.9509 43.6612C73.6004 43.0697 73.1403 42.6205 72.5706 42.3138C72.0229 41.9851 71.3546 41.8208 70.5658 41.8208C69.7771 41.8208 69.0978 41.9851 68.5282 42.3138C67.9804 42.6205 67.5313 43.0697 67.1807 43.6612C66.8302 44.2528 66.5782 44.9649 66.4248 45.7975C66.2714 46.6081 66.1948 47.5174 66.1948 48.5253V52.5348C66.1948 53.5427 66.2714 54.4629 66.4248 55.2955C66.5782 56.1062 66.8302 56.8073 67.1807 57.3989C67.5313 57.9904 67.9804 58.4506 68.5282 58.7792C69.0978 59.086 69.7771 59.2393 70.5658 59.2393ZM85.178 57.4317C85.9887 57.4317 86.5912 57.6399 86.9856 58.0562C87.38 58.4725 87.5772 59.0093 87.5772 59.6666V60.1924C87.5772 61.266 87.2814 62.3834 86.6898 63.5447C86.1201 64.7278 85.3423 65.7247 84.3564 66.5354H81.6943C82.3954 65.8343 82.976 65.1551 83.4361 64.4978C83.8963 63.8405 84.2468 63.1065 84.4878 62.2958C83.9182 62.1862 83.4909 61.9452 83.2061 61.5728C82.9213 61.1784 82.7788 60.7183 82.7788 60.1924V59.6666C82.7788 59.0093 82.976 58.4725 83.3704 58.0562C83.7648 57.6399 84.3673 57.4317 85.178 57.4317ZM99.8043 62.3944C98.3801 62.3944 97.1422 62.1315 96.0905 61.6056C95.0388 61.0579 94.1734 60.2801 93.4942 59.2722C92.815 58.2643 92.311 57.0264 91.9824 55.5584C91.6537 54.0904 91.4894 52.4143 91.4894 50.5301C91.4894 48.6677 91.6537 47.0025 91.9824 45.5345C92.311 44.0447 92.815 42.7958 93.4942 41.7879C94.1734 40.78 95.0388 40.0132 96.0905 39.4873C97.1422 38.9396 98.3801 38.6657 99.8043 38.6657C102.653 38.6657 104.745 39.7064 106.082 41.7879C107.44 43.8694 108.119 46.7834 108.119 50.5301C108.119 54.2767 107.44 57.1907 106.082 59.2722C104.745 61.3537 102.653 62.3944 99.8043 62.3944ZM99.8043 59.2393C100.593 59.2393 101.261 59.086 101.809 58.7792C102.379 58.4506 102.839 57.9904 103.189 57.3989C103.54 56.8073 103.792 56.1062 103.945 55.2955C104.099 54.4629 104.175 53.5427 104.175 52.5348V48.5253C104.175 47.5174 104.099 46.6081 103.945 45.7975C103.792 44.9649 103.54 44.2528 103.189 43.6612C102.839 43.0697 102.379 42.6205 101.809 42.3138C101.261 41.9851 100.593 41.8208 99.8043 41.8208C99.0155 41.8208 98.3363 41.9851 97.7666 42.3138C97.2189 42.6205 96.7697 43.0697 96.4192 43.6612C96.0686 44.2528 95.8166 44.9649 95.6633 45.7975C95.5099 46.6081 95.4332 47.5174 95.4332 48.5253V52.5348C95.4332 53.5427 95.5099 54.4629 95.6633 55.2955C95.8166 56.1062 96.0686 56.8073 96.4192 57.3989C96.7697 57.9904 97.2189 58.4506 97.7666 58.7792C98.3363 59.086 99.0155 59.2393 99.8043 59.2393ZM119.511 62.3944C118.086 62.3944 116.848 62.1315 115.797 61.6056C114.745 61.0579 113.88 60.2801 113.2 59.2722C112.521 58.2643 112.017 57.0264 111.689 55.5584C111.36 54.0904 111.196 52.4143 111.196 50.5301C111.196 48.6677 111.36 47.0025 111.689 45.5345C112.017 44.0447 112.521 42.7958 113.2 41.7879C113.88 40.78 114.745 40.0132 115.797 39.4873C116.848 38.9396 118.086 38.6657 119.511 38.6657C122.359 38.6657 124.451 39.7064 125.788 41.7879C127.146 43.8694 127.825 46.7834 127.825 50.5301C127.825 54.2767 127.146 57.1907 125.788 59.2722C124.451 61.3537 122.359 62.3944 119.511 62.3944ZM119.511 59.2393C120.299 59.2393 120.968 59.086 121.515 58.7792C122.085 58.4506 122.545 57.9904 122.896 57.3989C123.246 56.8073 123.498 56.1062 123.652 55.2955C123.805 54.4629 123.882 53.5427 123.882 52.5348V48.5253C123.882 47.5174 123.805 46.6081 123.652 45.7975C123.498 44.9649 123.246 44.2528 122.896 43.6612C122.545 43.0697 122.085 42.6205 121.515 42.3138C120.968 41.9851 120.299 41.8208 119.511 41.8208C118.722 41.8208 118.043 41.9851 117.473 42.3138C116.925 42.6205 116.476 43.0697 116.125 43.6612C115.775 44.2528 115.523 44.9649 115.37 45.7975C115.216 46.6081 115.139 47.5174 115.139 48.5253V52.5348C115.139 53.5427 115.216 54.4629 115.37 55.2955C115.523 56.1062 115.775 56.8073 116.125 57.3989C116.476 57.9904 116.925 58.4506 117.473 58.7792C118.043 59.086 118.722 59.2393 119.511 59.2393ZM139.217 62.3944C137.793 62.3944 136.555 62.1315 135.503 61.6056C134.451 61.0579 133.586 60.2801 132.907 59.2722C132.228 58.2643 131.724 57.0264 131.395 55.5584C131.066 54.0904 130.902 52.4143 130.902 50.5301C130.902 48.6677 131.066 47.0025 131.395 45.5345C131.724 44.0447 132.228 42.7958 132.907 41.7879C133.586 40.78 134.451 40.0132 135.503 39.4873C136.555 38.9396 137.793 38.6657 139.217 38.6657C142.065 38.6657 144.158 39.7064 145.494 41.7879C146.853 43.8694 147.532 46.7834 147.532 50.5301C147.532 54.2767 146.853 57.1907 145.494 59.2722C144.158 61.3537 142.065 62.3944 139.217 62.3944ZM139.217 59.2393C140.006 59.2393 140.674 59.086 141.222 58.7792C141.791 58.4506 142.251 57.9904 142.602 57.3989C142.953 56.8073 143.204 56.1062 143.358 55.2955C143.511 54.4629 143.588 53.5427 143.588 52.5348V48.5253C143.588 47.5174 143.511 46.6081 143.358 45.7975C143.204 44.9649 142.953 44.2528 142.602 43.6612C142.251 43.0697 141.791 42.6205 141.222 42.3138C140.674 41.9851 140.006 41.8208 139.217 41.8208C138.428 41.8208 137.749 41.9851 137.179 42.3138C136.631 42.6205 136.182 43.0697 135.832 43.6612C135.481 44.2528 135.229 44.9649 135.076 45.7975C134.922 46.6081 134.846 47.5174 134.846 48.5253V52.5348C134.846 53.5427 134.922 54.4629 135.076 55.2955C135.229 56.1062 135.481 56.8073 135.832 57.3989C136.182 57.9904 136.631 58.4506 137.179 58.7792C137.749 59.086 138.428 59.2393 139.217 59.2393ZM157.313 59.9295V53.4222H151.266V50.4972H157.313V43.9899H160.533V50.4972H166.581V53.4222H160.533V59.9295H157.313Z" fill="white"/>
</svg>
