<svg width="224" height="103" viewBox="0 0 224 103" fill="none" xmlns="http://www.w3.org/2000/svg">
<g clip-path="url(#clip0_402_10)">
<path d="M65.3308 82.2671C64.4546 82.0729 63.5466 82.0729 62.6705 82.2671C61.6694 82.4889 60.7718 83.0351 59.7826 83.637C59.7115 83.6802 59.6399 83.7238 59.5677 83.7676L34.2038 99.1506C32.8672 99.9612 32.6153 100.082 32.3994 100.13C32.1354 100.188 31.8619 100.188 31.598 100.13C31.3821 100.082 31.1301 99.9612 29.7936 99.1505L4.19485 83.6234C2.95046 82.8686 2.74207 82.7142 2.60506 82.5573C2.43789 82.3659 2.31189 82.1421 2.23492 81.8999C2.17185 81.7014 2.14795 81.4432 2.14795 79.9878V11.3674C2.14795 9.466 2.15011 8.18905 2.23637 7.24879C2.32396 6.29407 2.47586 6.051 2.50877 6.00632C2.82336 5.57918 3.30601 5.30743 3.83437 5.25998C3.88964 5.25501 4.17625 5.2512 5.03796 5.67144C5.88663 6.08532 6.97956 6.74571 8.60526 7.7318L27.5657 19.2324C27.6378 19.2762 27.7094 19.3197 27.7805 19.363C28.7697 19.965 29.6673 20.5112 30.6684 20.7331C31.5445 20.9273 32.4526 20.9273 33.3287 20.7332C34.3298 20.5113 35.2274 19.9652 36.2166 19.3632C36.2877 19.32 36.3593 19.2764 36.4315 19.2326L61.7954 3.8496C63.132 3.03898 63.3839 2.91795 63.5998 2.8701C63.8638 2.81162 64.1373 2.81162 64.4013 2.87012C64.6172 2.91798 64.8691 3.03902 66.2056 3.84971L91.566 19.2323C91.6382 19.2761 91.7098 19.3196 91.7809 19.3629C92.7701 19.9649 93.6677 20.5112 94.6689 20.733C95.5451 20.9272 96.4531 20.9272 97.3293 20.733C98.3304 20.5112 99.2281 19.9649 100.217 19.3629C100.288 19.3196 100.36 19.2761 100.432 19.2323L125.792 3.84982C127.129 3.03909 127.381 2.91804 127.597 2.87019C127.861 2.81169 128.134 2.81169 128.398 2.87019C128.614 2.91804 128.866 3.03909 130.203 3.84982L155.563 19.2324C155.635 19.2762 155.707 19.3197 155.778 19.363C156.767 19.965 157.665 20.5112 158.666 20.7331C159.542 20.9273 160.45 20.9273 161.326 20.7332C162.327 20.5113 163.225 19.9651 164.214 19.3632C164.285 19.3199 164.357 19.2764 164.429 19.2326L189.793 3.84949C191.129 3.03891 191.381 2.91789 191.597 2.87004C191.861 2.81155 192.135 2.81155 192.399 2.87004C192.615 2.91789 192.867 3.03891 194.203 3.84949L219.805 19.3769C221.05 20.1317 221.258 20.2861 221.395 20.4429C221.562 20.6343 221.688 20.8581 221.765 21.1004C221.828 21.2989 221.852 21.5571 221.852 23.0126V91.6335C221.852 93.5348 221.85 94.8117 221.764 95.7519C221.676 96.7065 221.524 96.9496 221.491 96.9943C221.177 97.4214 220.694 97.6932 220.166 97.7406C220.11 97.7456 219.824 97.7494 218.962 97.3292C218.114 96.9154 217.021 96.2551 215.395 95.2692L196.431 83.7675C196.359 83.7237 196.287 83.6801 196.216 83.6368C195.227 83.0349 194.329 82.4888 193.328 82.267C192.452 82.0729 191.544 82.0729 190.668 82.267C189.667 82.4888 188.769 83.0349 187.78 83.6368C187.709 83.6801 187.637 83.7237 187.565 83.7675L162.201 99.1506C160.865 99.9612 160.613 100.082 160.397 100.13C160.133 100.188 159.859 100.188 159.595 100.13C159.379 100.082 159.127 99.9612 157.791 99.1505L132.431 83.7679C132.358 83.7242 132.287 83.6806 132.216 83.6373C131.226 83.0353 130.329 82.489 129.328 82.2672C128.452 82.073 127.543 82.073 126.667 82.2672C125.666 82.489 124.769 83.0353 123.779 83.6373C123.708 83.6806 123.637 83.7241 123.564 83.7679L98.2043 99.1504C96.8677 99.9611 96.6158 100.082 96.3998 100.13C96.1359 100.188 95.8623 100.188 95.5984 100.13C95.3824 100.082 95.1305 99.9611 93.7939 99.1504L68.4335 83.7678C68.3613 83.724 68.2897 83.6805 68.2186 83.6372C67.2294 83.0352 66.3319 82.489 65.3308 82.2671Z" fill="#1A023B"/>
<path d="M65.3308 82.2671L64.866 84.3641M65.3308 82.2671C64.4546 82.0729 63.5466 82.0729 62.6705 82.2671C61.6694 82.4889 60.7718 83.0351 59.7826 83.637C59.7115 83.6802 59.6399 83.7238 59.5677 83.7676L34.2038 99.1506C32.8672 99.9612 32.6153 100.082 32.3994 100.13C32.1354 100.188 31.8619 100.188 31.598 100.13M65.3308 82.2671C66.3319 82.489 67.2294 83.0352 68.2186 83.6372C68.2897 83.6805 68.3613 83.724 68.4335 83.7678L93.7939 99.1504C95.1305 99.9611 95.3824 100.082 95.5984 100.13C95.8623 100.188 96.1359 100.188 96.3998 100.13C96.6158 100.082 96.8677 99.9611 98.2043 99.1504L123.564 83.7679C123.637 83.7241 123.708 83.6806 123.779 83.6373C124.769 83.0353 125.666 82.489 126.667 82.2672C127.543 82.073 128.452 82.073 129.328 82.2672C130.329 82.489 131.226 83.0353 132.216 83.6373C132.287 83.6806 132.358 83.7242 132.431 83.7679L157.791 99.1505C159.127 99.9612 159.379 100.082 159.595 100.13M31.598 100.13L31.1332 102.227M31.598 100.13C31.3821 100.082 31.1301 99.9612 29.7936 99.1505M29.7936 99.1505L28.6796 100.987M29.7936 99.1505L4.19485 83.6234C2.95046 82.8686 2.74207 82.7142 2.60506 82.5573C2.43789 82.3659 2.31189 82.1421 2.23492 81.8999C2.17185 81.7014 2.14795 81.4432 2.14795 79.9878V11.3674C2.14795 9.466 2.15011 8.18905 2.23637 7.24879C2.32396 6.29407 2.47586 6.051 2.50877 6.00632C2.82336 5.57918 3.30601 5.30743 3.83437 5.25998C3.88964 5.25501 4.17625 5.2512 5.03796 5.67144C5.88663 6.08532 6.97956 6.74571 8.60526 7.7318L27.5657 19.2324C27.6378 19.2762 27.7094 19.3197 27.7805 19.363C28.7697 19.965 29.6673 20.5112 30.6684 20.7331C31.5445 20.9273 32.4526 20.9273 33.3287 20.7332C34.3298 20.5113 35.2274 19.9652 36.2166 19.3632C36.2877 19.32 36.3593 19.2764 36.4315 19.2326L61.7954 3.8496C63.132 3.03898 63.3839 2.91795 63.5998 2.8701C63.8638 2.81162 64.1373 2.81162 64.4013 2.87012C64.6172 2.91798 64.8691 3.03902 66.2056 3.84971L91.566 19.2323C91.6382 19.2761 91.7098 19.3196 91.7809 19.3629C92.7701 19.9649 93.6677 20.5112 94.6689 20.733C95.5451 20.9272 96.4531 20.9272 97.3293 20.733C98.3304 20.5112 99.2281 19.9649 100.217 19.3629C100.288 19.3196 100.36 19.2761 100.432 19.2323L125.792 3.84982C127.129 3.03909 127.381 2.91804 127.597 2.87019C127.861 2.81169 128.134 2.81169 128.398 2.87019C128.614 2.91804 128.866 3.03909 130.203 3.84982L155.563 19.2324C155.635 19.2762 155.707 19.3197 155.778 19.363C156.767 19.965 157.665 20.5112 158.666 20.7331C159.542 20.9273 160.45 20.9273 161.326 20.7332C162.327 20.5113 163.225 19.9651 164.214 19.3632C164.285 19.3199 164.357 19.2764 164.429 19.2326L189.793 3.84949C191.129 3.03891 191.381 2.91789 191.597 2.87004C191.861 2.81155 192.135 2.81155 192.399 2.87004C192.615 2.91789 192.867 3.03891 194.203 3.84949L219.805 19.3769C221.05 20.1317 221.258 20.2861 221.395 20.4429M221.395 20.4429L223.013 19.03M221.395 20.4429C221.562 20.6343 221.688 20.8581 221.765 21.1004C221.828 21.2989 221.852 21.5571 221.852 23.0126V91.6335C221.852 93.5348 221.85 94.8117 221.764 95.7519C221.676 96.7065 221.524 96.9496 221.491 96.9943C221.177 97.4214 220.694 97.6932 220.166 97.7406C220.11 97.7456 219.824 97.7494 218.962 97.3292C218.114 96.9154 217.021 96.2551 215.395 95.2692L196.431 83.7675C196.359 83.7237 196.287 83.6801 196.216 83.6368C195.227 83.0349 194.329 82.4888 193.328 82.267C192.452 82.0729 191.544 82.0729 190.668 82.267C189.667 82.4888 188.769 83.0349 187.78 83.6368C187.709 83.6801 187.637 83.7237 187.565 83.7675L162.201 99.1506C160.865 99.9612 160.613 100.082 160.397 100.13C160.133 100.188 159.859 100.188 159.595 100.13M159.595 100.13L159.131 102.227" stroke="#FFC700" stroke-width="4.29577"/>
<path d="M55.0015 64V60.7939H61.6866V42.9895H61.4138L55.8883 48.8902L53.5349 46.7755L59.6061 40.1927H65.4726V60.7939H71.271V64H55.0015ZM82.6838 64.4093C81.2058 64.4093 79.921 64.1364 78.8296 63.5907C77.7381 63.0222 76.84 62.215 76.1351 61.169C75.4302 60.1231 74.9072 58.8383 74.5661 57.3149C74.225 55.7914 74.0545 54.0519 74.0545 52.0963C74.0545 50.1636 74.225 48.4354 74.5661 46.9119C74.9072 45.3657 75.4302 44.0696 76.1351 43.0236C76.84 41.9777 77.7381 41.1818 78.8296 40.6361C79.921 40.0676 81.2058 39.7834 82.6838 39.7834C85.6398 39.7834 87.8113 40.8635 89.1984 43.0236C90.6082 45.1838 91.3131 48.208 91.3131 52.0963C91.3131 55.9846 90.6082 59.0089 89.1984 61.169C87.8113 63.3292 85.6398 64.4093 82.6838 64.4093ZM82.6838 61.1349C83.5024 61.1349 84.1959 60.9758 84.7644 60.6574C85.3556 60.3163 85.8331 59.8388 86.1969 59.2249C86.5607 58.611 86.8222 57.8833 86.9814 57.042C87.1406 56.1779 87.2201 55.2229 87.2201 54.1769V50.0158C87.2201 48.9698 87.1406 48.0261 86.9814 47.1848C86.8222 46.3207 86.5607 45.5817 86.1969 44.9678C85.8331 44.3538 85.3556 43.8877 84.7644 43.5694C84.1959 43.2283 83.5024 43.0577 82.6838 43.0577C81.8652 43.0577 81.1603 43.2283 80.5691 43.5694C80.0006 43.8877 79.5345 44.3538 79.1707 44.9678C78.8069 45.5817 78.5454 46.3207 78.3862 47.1848C78.227 48.0261 78.1474 48.9698 78.1474 50.0158V54.1769C78.1474 55.2229 78.227 56.1779 78.3862 57.042C78.5454 57.8833 78.8069 58.611 79.1707 59.2249C79.5345 59.8388 80.0006 60.3163 80.5691 60.6574C81.1603 60.9758 81.8652 61.1349 82.6838 61.1349ZM103.135 64.4093C101.657 64.4093 100.372 64.1364 99.281 63.5907C98.1896 63.0222 97.2914 62.215 96.5865 61.169C95.8816 60.1231 95.3586 58.8383 95.0175 57.3149C94.6764 55.7914 94.5059 54.0519 94.5059 52.0963C94.5059 50.1636 94.6764 48.4354 95.0175 46.9119C95.3586 45.3657 95.8816 44.0696 96.5865 43.0236C97.2914 41.9777 98.1896 41.1818 99.281 40.6361C100.372 40.0676 101.657 39.7834 103.135 39.7834C106.091 39.7834 108.263 40.8635 109.65 43.0236C111.06 45.1838 111.765 48.208 111.765 52.0963C111.765 55.9846 111.06 59.0089 109.65 61.169C108.263 63.3292 106.091 64.4093 103.135 64.4093ZM103.135 61.1349C103.954 61.1349 104.647 60.9758 105.216 60.6574C105.807 60.3163 106.284 59.8388 106.648 59.2249C107.012 58.611 107.274 57.8833 107.433 57.042C107.592 56.1779 107.672 55.2229 107.672 54.1769V50.0158C107.672 48.9698 107.592 48.0261 107.433 47.1848C107.274 46.3207 107.012 45.5817 106.648 44.9678C106.284 44.3538 105.807 43.8877 105.216 43.5694C104.647 43.2283 103.954 43.0577 103.135 43.0577C102.317 43.0577 101.612 43.2283 101.021 43.5694C100.452 43.8877 99.9859 44.3538 99.6221 44.9678C99.2583 45.5817 98.9968 46.3207 98.8376 47.1848C98.6784 48.0261 98.5989 48.9698 98.5989 50.0158V54.1769C98.5989 55.2229 98.6784 56.1779 98.8376 57.042C98.9968 57.8833 99.2583 58.611 99.6221 59.2249C99.9859 59.8388 100.452 60.3163 101.021 60.6574C101.612 60.9758 102.317 61.1349 103.135 61.1349ZM123.587 64.4093C122.109 64.4093 120.824 64.1364 119.732 63.5907C118.641 63.0222 117.743 62.215 117.038 61.169C116.333 60.1231 115.81 58.8383 115.469 57.3149C115.128 55.7914 114.957 54.0519 114.957 52.0963C114.957 50.1636 115.128 48.4354 115.469 46.9119C115.81 45.3657 116.333 44.0696 117.038 43.0236C117.743 41.9777 118.641 41.1818 119.732 40.6361C120.824 40.0676 122.109 39.7834 123.587 39.7834C126.543 39.7834 128.714 40.8635 130.101 43.0236C131.511 45.1838 132.216 48.208 132.216 52.0963C132.216 55.9846 131.511 59.0089 130.101 61.169C128.714 63.3292 126.543 64.4093 123.587 64.4093ZM123.587 61.1349C124.405 61.1349 125.099 60.9758 125.667 60.6574C126.258 60.3163 126.736 59.8388 127.1 59.2249C127.464 58.611 127.725 57.8833 127.884 57.042C128.043 56.1779 128.123 55.2229 128.123 54.1769V50.0158C128.123 48.9698 128.043 48.0261 127.884 47.1848C127.725 46.3207 127.464 45.5817 127.1 44.9678C126.736 44.3538 126.258 43.8877 125.667 43.5694C125.099 43.2283 124.405 43.0577 123.587 43.0577C122.768 43.0577 122.063 43.2283 121.472 43.5694C120.903 43.8877 120.437 44.3538 120.074 44.9678C119.71 45.5817 119.448 46.3207 119.289 47.1848C119.13 48.0261 119.05 48.9698 119.05 50.0158V54.1769C119.05 55.2229 119.13 56.1779 119.289 57.042C119.448 57.8833 119.71 58.611 120.074 59.2249C120.437 59.8388 120.903 60.3163 121.472 60.6574C122.063 60.9758 122.768 61.1349 123.587 61.1349ZM144.038 64.4093C142.56 64.4093 141.275 64.1364 140.184 63.5907C139.092 63.0222 138.194 62.215 137.489 61.169C136.784 60.1231 136.261 58.8383 135.92 57.3149C135.579 55.7914 135.409 54.0519 135.409 52.0963C135.409 50.1636 135.579 48.4354 135.92 46.9119C136.261 45.3657 136.784 44.0696 137.489 43.0236C138.194 41.9777 139.092 41.1818 140.184 40.6361C141.275 40.0676 142.56 39.7834 144.038 39.7834C146.994 39.7834 149.166 40.8635 150.553 43.0236C151.962 45.1838 152.667 48.208 152.667 52.0963C152.667 55.9846 151.962 59.0089 150.553 61.169C149.166 63.3292 146.994 64.4093 144.038 64.4093ZM144.038 61.1349C144.857 61.1349 145.55 60.9758 146.119 60.6574C146.71 60.3163 147.187 59.8388 147.551 59.2249C147.915 58.611 148.176 57.8833 148.336 57.042C148.495 56.1779 148.574 55.2229 148.574 54.1769V50.0158C148.574 48.9698 148.495 48.0261 148.336 47.1848C148.176 46.3207 147.915 45.5817 147.551 44.9678C147.187 44.3538 146.71 43.8877 146.119 43.5694C145.55 43.2283 144.857 43.0577 144.038 43.0577C143.219 43.0577 142.515 43.2283 141.923 43.5694C141.355 43.8877 140.889 44.3538 140.525 44.9678C140.161 45.5817 139.9 46.3207 139.74 47.1848C139.581 48.0261 139.502 48.9698 139.502 50.0158V54.1769C139.502 55.2229 139.581 56.1779 139.74 57.042C139.9 57.8833 140.161 58.611 140.525 59.2249C140.889 59.8388 141.355 60.3163 141.923 60.6574C142.515 60.9758 143.219 61.1349 144.038 61.1349ZM162.818 61.8512V55.0978H156.542V52.0622H162.818V45.3089H166.161V52.0622H172.437V55.0978H166.161V61.8512H162.818Z" fill="white"/>
</g>
<defs>
<clipPath id="clip0_402_10">
<rect width="224" height="103" fill="white"/>
</clipPath>
</defs>
</svg>
