<svg width="133" height="103" viewBox="0 0 133 103" fill="none" xmlns="http://www.w3.org/2000/svg">
<g clip-path="url(#clip0_402_20)">
<path d="M66.5 1.76782C84.5033 1.76782 100.715 5.52588 112.36 11.5173C124.098 17.556 130.732 25.5828 130.732 33.9554V68.3352C130.732 76.7079 124.098 84.7346 112.36 90.7733C100.715 96.7647 84.5033 100.523 66.5 100.523C48.4967 100.523 32.2853 96.7647 20.6397 90.7733C8.90214 84.7346 2.26782 76.7079 2.26782 68.3352V33.9554C2.26782 25.5828 8.90214 17.556 20.6397 11.5173C32.2853 5.52588 48.4967 1.76782 66.5 1.76782Z" fill="#1A023B" stroke="#FFC700" stroke-width="3.53571"/>
<path d="M40.1451 62H25.1233V58.5773L32.1905 52.2707C33.3103 51.2566 34.1659 50.2953 34.7575 49.3868C35.3702 48.4572 35.6766 47.4853 35.6766 46.4712V46.0592C35.6766 44.9817 35.3491 44.1366 34.6941 43.5239C34.0603 42.9112 33.1941 42.6048 32.0954 42.6048C31.4827 42.6048 30.944 42.6999 30.4792 42.8901C30.0355 43.0591 29.6446 43.3021 29.3066 43.619C28.9686 43.9359 28.6833 44.3056 28.4509 44.7282C28.2396 45.1507 28.0706 45.605 27.9439 46.0909L24.8064 44.8866C25.0388 44.1894 25.3557 43.5239 25.7572 42.8901C26.1586 42.2351 26.6656 41.6541 27.2783 41.147C27.891 40.64 28.6094 40.2386 29.4334 39.9428C30.2785 39.647 31.2609 39.4991 32.3807 39.4991C33.5004 39.4991 34.504 39.6681 35.3913 40.0062C36.2787 40.3231 37.0182 40.7773 37.6097 41.3689C38.2224 41.9393 38.6873 42.626 39.0042 43.4288C39.3211 44.2317 39.4795 45.1085 39.4795 46.0592C39.4795 46.9466 39.3422 47.7705 39.0676 48.5311C38.7929 49.2917 38.4126 50.0101 37.9267 50.6862C37.4407 51.3622 36.8703 52.0066 36.2153 52.6193C35.5815 53.232 34.9054 53.8553 34.1871 54.4891L28.9897 58.9576H40.1451V62ZM51.5099 62.3803C50.1366 62.3803 48.9429 62.1268 47.9288 61.6197C46.9146 61.0915 46.0801 60.3415 45.4251 59.3696C44.7702 58.3977 44.2843 57.204 43.9673 55.7885C43.6504 54.3729 43.492 52.7567 43.492 50.9397C43.492 49.1438 43.6504 47.5381 43.9673 46.1226C44.2843 44.6859 44.7702 43.4816 45.4251 42.5098C46.0801 41.5379 46.9146 40.7984 47.9288 40.2914C48.9429 39.7632 50.1366 39.4991 51.5099 39.4991C54.2565 39.4991 56.2742 40.5026 57.563 42.5098C58.8729 44.5169 59.5278 47.3269 59.5278 50.9397C59.5278 54.5525 58.8729 57.3625 57.563 59.3696C56.2742 61.3767 54.2565 62.3803 51.5099 62.3803ZM51.5099 59.3379C52.2705 59.3379 52.9149 59.19 53.4431 58.8942C53.9924 58.5773 54.4361 58.1336 54.7741 57.5632C55.1122 56.9928 55.3551 56.3167 55.503 55.5349C55.6509 54.7321 55.7249 53.8447 55.7249 52.8729V49.0065C55.7249 48.0346 55.6509 47.1578 55.503 46.3761C55.3551 45.5733 55.1122 44.8866 54.7741 44.3162C54.4361 43.7457 53.9924 43.3126 53.4431 43.0168C52.9149 42.6999 52.2705 42.5415 51.5099 42.5415C50.7493 42.5415 50.0944 42.6999 49.545 43.0168C49.0168 43.3126 48.5837 43.7457 48.2457 44.3162C47.9076 44.8866 47.6647 45.5733 47.5168 46.3761C47.3689 47.1578 47.2949 48.0346 47.2949 49.0065V52.8729C47.2949 53.8447 47.3689 54.7321 47.5168 55.5349C47.6647 56.3167 47.9076 56.9928 48.2457 57.5632C48.5837 58.1336 49.0168 58.5773 49.545 58.8942C50.0944 59.19 50.7493 59.3379 51.5099 59.3379ZM70.5124 62.3803C69.1391 62.3803 67.9454 62.1268 66.9312 61.6197C65.9171 61.0915 65.0826 60.3415 64.4276 59.3696C63.7727 58.3977 63.2867 57.204 62.9698 55.7885C62.6529 54.3729 62.4944 52.7567 62.4944 50.9397C62.4944 49.1438 62.6529 47.5381 62.9698 46.1226C63.2867 44.6859 63.7727 43.4816 64.4276 42.5098C65.0826 41.5379 65.9171 40.7984 66.9312 40.2914C67.9454 39.7632 69.1391 39.4991 70.5124 39.4991C73.259 39.4991 75.2767 40.5026 76.5654 42.5098C77.8754 44.5169 78.5303 47.3269 78.5303 50.9397C78.5303 54.5525 77.8754 57.3625 76.5654 59.3696C75.2767 61.3767 73.259 62.3803 70.5124 62.3803ZM70.5124 59.3379C71.273 59.3379 71.9174 59.19 72.4456 58.8942C72.9949 58.5773 73.4386 58.1336 73.7766 57.5632C74.1146 56.9928 74.3576 56.3167 74.5055 55.5349C74.6534 54.7321 74.7273 53.8447 74.7273 52.8729V49.0065C74.7273 48.0346 74.6534 47.1578 74.5055 46.3761C74.3576 45.5733 74.1146 44.8866 73.7766 44.3162C73.4386 43.7457 72.9949 43.3126 72.4456 43.0168C71.9174 42.6999 71.273 42.5415 70.5124 42.5415C69.7518 42.5415 69.0968 42.6999 68.5475 43.0168C68.0193 43.3126 67.5862 43.7457 67.2482 44.3162C66.9101 44.8866 66.6672 45.5733 66.5193 46.3761C66.3714 47.1578 66.2974 48.0346 66.2974 49.0065V52.8729C66.2974 53.8447 66.3714 54.7321 66.5193 55.5349C66.6672 56.3167 66.9101 56.9928 67.2482 57.5632C67.5862 58.1336 68.0193 58.5773 68.5475 58.8942C69.0968 59.19 69.7518 59.3379 70.5124 59.3379ZM89.5149 62.3803C88.1416 62.3803 86.9478 62.1268 85.9337 61.6197C84.9196 61.0915 84.0851 60.3415 83.4301 59.3696C82.7751 58.3977 82.2892 57.204 81.9723 55.7885C81.6554 54.3729 81.4969 52.7567 81.4969 50.9397C81.4969 49.1438 81.6554 47.5381 81.9723 46.1226C82.2892 44.6859 82.7751 43.4816 83.4301 42.5098C84.0851 41.5379 84.9196 40.7984 85.9337 40.2914C86.9478 39.7632 88.1416 39.4991 89.5149 39.4991C92.2614 39.4991 94.2791 40.5026 95.5679 42.5098C96.8778 44.5169 97.5328 47.3269 97.5328 50.9397C97.5328 54.5525 96.8778 57.3625 95.5679 59.3696C94.2791 61.3767 92.2614 62.3803 89.5149 62.3803ZM89.5149 59.3379C90.2754 59.3379 90.9198 59.19 91.448 58.8942C91.9974 58.5773 92.441 58.1336 92.7791 57.5632C93.1171 56.9928 93.3601 56.3167 93.508 55.5349C93.6559 54.7321 93.7298 53.8447 93.7298 52.8729V49.0065C93.7298 48.0346 93.6559 47.1578 93.508 46.3761C93.3601 45.5733 93.1171 44.8866 92.7791 44.3162C92.441 43.7457 91.9974 43.3126 91.448 43.0168C90.9198 42.6999 90.2754 42.5415 89.5149 42.5415C88.7543 42.5415 88.0993 42.6999 87.55 43.0168C87.0218 43.3126 86.5887 43.7457 86.2506 44.3162C85.9126 44.8866 85.6696 45.5733 85.5217 46.3761C85.3738 47.1578 85.2999 48.0346 85.2999 49.0065V52.8729C85.2999 53.8447 85.3738 54.7321 85.5217 55.5349C85.6696 56.3167 85.9126 56.9928 86.2506 57.5632C86.5887 58.1336 87.0218 58.5773 87.55 58.8942C88.0993 59.19 88.7543 59.3379 89.5149 59.3379ZM106.964 60.0034V53.7285H101.133V50.908H106.964V44.6331H110.07V50.908H115.901V53.7285H110.07V60.0034H106.964Z" fill="white"/>
</g>
<defs>
<clipPath id="clip0_402_20">
<rect width="133" height="103" fill="white"/>
</clipPath>
</defs>
</svg>
