<svg width="97" height="104" viewBox="0 0 97 104" fill="none" xmlns="http://www.w3.org/2000/svg">
<path d="M87.9804 47.5178C85.5908 49.9783 85.5908 54.0217 87.9804 56.4822C92.4817 61.1168 95 66.5207 95 72.1824C95 80.1568 90.0448 87.5747 81.6224 93.0703C73.2136 98.5571 61.5077 102 48.5 102C35.4923 102 23.7864 98.5571 15.3776 93.0703C6.9552 87.5747 2 80.1568 2 72.1824C2 66.5207 4.51834 61.1168 9.0196 56.4822C11.4092 54.0217 11.4092 49.9783 9.0196 47.5178C4.51834 42.8832 2 37.4793 2 31.8176C2 23.8432 6.9552 16.4253 15.3776 10.9297C23.7864 5.44293 35.4923 2 48.5 2C61.5077 2 73.2136 5.44293 81.6224 10.9297C90.0448 16.4253 95 23.8432 95 31.8176C95 37.4793 92.4817 42.8832 87.9804 47.5178Z" fill="#1A023B" stroke="#FFC700" stroke-width="3"/>
<path d="M27.9551 65V61.2287H18.9705V58.5389L26.8181 45.6445H30.9222V58.7608H33.5565V61.2287H30.9222V65H27.9551ZM21.6326 58.7608H27.9551V48.5007H27.761L21.6326 58.7608ZM42.9462 65.3328C41.7445 65.3328 40.7 65.1109 39.8127 64.6672C38.9253 64.2051 38.1951 63.5488 37.622 62.6984C37.0489 61.848 36.6237 60.8035 36.3464 59.5649C36.0691 58.3263 35.9305 56.9121 35.9305 55.3222C35.9305 53.7509 36.0691 52.3459 36.3464 51.1073C36.6237 49.8502 37.0489 48.7964 37.622 47.9461C38.1951 47.0957 38.9253 46.4486 39.8127 46.0049C40.7 45.5428 41.7445 45.3117 42.9462 45.3117C45.3494 45.3117 47.1149 46.1898 48.2426 47.9461C49.3888 49.7023 49.9619 52.161 49.9619 55.3222C49.9619 58.4835 49.3888 60.9422 48.2426 62.6984C47.1149 64.4546 45.3494 65.3328 42.9462 65.3328ZM42.9462 62.6707C43.6117 62.6707 44.1755 62.5413 44.6377 62.2825C45.1183 62.0052 45.5066 61.6169 45.8024 61.1178C46.0981 60.6187 46.3107 60.0271 46.4401 59.3431C46.5696 58.6406 46.6343 57.8641 46.6343 57.0138V53.6307C46.6343 52.7803 46.5696 52.0131 46.4401 51.3291C46.3107 50.6266 46.0981 50.0258 45.8024 49.5267C45.5066 49.0275 45.1183 48.6485 44.6377 48.3897C44.1755 48.1124 43.6117 47.9738 42.9462 47.9738C42.2806 47.9738 41.7076 48.1124 41.2269 48.3897C40.7647 48.6485 40.3858 49.0275 40.09 49.5267C39.7942 50.0258 39.5816 50.6266 39.4522 51.3291C39.3228 52.0131 39.2581 52.7803 39.2581 53.6307V57.0138C39.2581 57.8641 39.3228 58.6406 39.4522 59.3431C39.5816 60.0271 39.7942 60.6187 40.09 61.1178C40.3858 61.6169 40.7647 62.0052 41.2269 62.2825C41.7076 62.5413 42.2806 62.6707 42.9462 62.6707ZM59.5733 65.3328C58.3717 65.3328 57.3272 65.1109 56.4398 64.6672C55.5525 64.2051 54.8223 63.5488 54.2492 62.6984C53.6761 61.848 53.2509 60.8035 52.9736 59.5649C52.6963 58.3263 52.5576 56.9121 52.5576 55.3222C52.5576 53.7509 52.6963 52.3459 52.9736 51.1073C53.2509 49.8502 53.6761 48.7964 54.2492 47.9461C54.8223 47.0957 55.5525 46.4486 56.4398 46.0049C57.3272 45.5428 58.3717 45.3117 59.5733 45.3117C61.9766 45.3117 63.7421 46.1898 64.8698 47.9461C66.0159 49.7023 66.589 52.161 66.589 55.3222C66.589 58.4835 66.0159 60.9422 64.8698 62.6984C63.7421 64.4546 61.9766 65.3328 59.5733 65.3328ZM59.5733 62.6707C60.2389 62.6707 60.8027 62.5413 61.2649 62.2825C61.7455 62.0052 62.1337 61.6169 62.4295 61.1178C62.7253 60.6187 62.9379 60.0271 63.0673 59.3431C63.1967 58.6406 63.2614 57.8641 63.2614 57.0138V53.6307C63.2614 52.7803 63.1967 52.0131 63.0673 51.3291C62.9379 50.6266 62.7253 50.0258 62.4295 49.5267C62.1337 49.0275 61.7455 48.6485 61.2649 48.3897C60.8027 48.1124 60.2389 47.9738 59.5733 47.9738C58.9078 47.9738 58.3347 48.1124 57.8541 48.3897C57.3919 48.6485 57.0129 49.0275 56.7171 49.5267C56.4214 50.0258 56.2088 50.6266 56.0794 51.3291C55.9499 52.0131 55.8852 52.7803 55.8852 53.6307V57.0138C55.8852 57.8641 55.9499 58.6406 56.0794 59.3431C56.2088 60.0271 56.4214 60.6187 56.7171 61.1178C57.0129 61.6169 57.3919 62.0052 57.8541 62.2825C58.3347 62.5413 58.9078 62.6707 59.5733 62.6707ZM74.8417 63.253V57.7625H69.7394V55.2945H74.8417V49.804H77.5593V55.2945H82.6616V57.7625H77.5593V63.253H74.8417Z" fill="white"/>
</svg>
