<svg width="40" height="40" viewBox="0 0 40 40" fill="none" xmlns="http://www.w3.org/2000/svg">
<path d="M2.35938 3.38879L3.81718 13.3018C3.81718 13.7878 4.30311 14.0793 4.78904 13.9821C4.98342 13.9821 5.17779 13.885 5.27498 13.6906L11.9809 6.11002" fill="#F9BDB5"/>
<path d="M14.9922 6.98462L16.3528 16.8977C16.3528 17.3836 16.8387 17.6752 17.3247 17.578C17.519 17.578 17.7134 17.4808 17.8106 17.2864L24.6137 9.70585" fill="#F9BDB5"/>
<path d="M27.6289 10.6777L28.9895 20.688C28.9895 21.1739 29.4755 21.4655 29.9614 21.3683C30.1558 21.3683 30.3501 21.2711 30.4473 21.0767L37.2504 13.399" fill="#F9BDB5"/>
<path d="M1.67969 28.4629L6.7334 37.1125C6.92777 37.5012 7.51089 37.5984 7.89964 37.404C8.09401 37.404 8.1912 37.1125 8.28838 37.0153L11.6899 27.3938" fill="#FFCF8C"/>
<path d="M15.1914 27.0051L20.3423 35.7519C20.5367 36.1406 21.1198 36.2378 21.5085 36.0435C21.7029 36.0435 21.8001 35.7519 21.8973 35.6547L25.396 25.936" fill="#FFCF8C"/>
<path d="M28.1133 25.5473L33.167 34.1969C33.3614 34.5857 33.9445 34.6829 34.3332 34.4885C34.5276 34.4885 34.6248 34.1969 34.722 34.0998L38.1235 24.4783" fill="#FFCF8C"/>
<path d="M1 3L39 13.9821" stroke="#595959" stroke-width="2" stroke-linecap="round" stroke-linejoin="round"/>
<path d="M2.35938 3.38879L3.81718 13.3018C3.81718 13.7878 4.30311 14.0793 4.78904 13.9821C4.98342 13.9821 5.17779 13.885 5.27498 13.6906L11.9809 6.11002" stroke="#595959" stroke-width="2" stroke-linecap="round" stroke-linejoin="round"/>
<path d="M14.9922 6.98462L16.3528 16.8977C16.3528 17.3836 16.8387 17.6752 17.3247 17.578C17.519 17.578 17.7134 17.4808 17.8106 17.2864L24.6137 9.70585" stroke="#595959" stroke-width="2" stroke-linecap="round" stroke-linejoin="round"/>
<path d="M27.6289 10.6777L28.9895 20.688C28.9895 21.1739 29.4755 21.4655 29.9614 21.3683C30.1558 21.3683 30.3501 21.2711 30.4473 21.0767L37.2504 13.399" stroke="#595959" stroke-width="2" stroke-linecap="round" stroke-linejoin="round"/>
<path d="M1 28.5602L39 24.2839" stroke="#595959" stroke-width="2" stroke-linecap="round" stroke-linejoin="round"/>
<path d="M1.67969 28.4629L6.7334 37.1125C6.92777 37.5012 7.51089 37.5984 7.89964 37.404C8.09401 37.404 8.1912 37.1125 8.28838 37.0153L11.6899 27.3938" stroke="#595959" stroke-width="2" stroke-linecap="round" stroke-linejoin="round"/>
<path d="M15.1914 27.0051L20.3423 35.7519C20.5367 36.1406 21.1198 36.2378 21.5085 36.0435C21.7029 36.0435 21.8001 35.7519 21.8973 35.6547L25.396 25.936" stroke="#595959" stroke-width="2" stroke-linecap="round" stroke-linejoin="round"/>
<path d="M28.1133 25.5473L33.167 34.1969C33.3614 34.5857 33.9445 34.6829 34.3332 34.4885C34.5276 34.4885 34.6248 34.1969 34.722 34.0998L38.1235 24.4783" stroke="#595959" stroke-width="2" stroke-linecap="round" stroke-linejoin="round"/>
</svg>
