<svg width="40" height="40" viewBox="0 0 40 40" fill="none" xmlns="http://www.w3.org/2000/svg">
  <path
    d="M1 17.9114V24.5219C1 26.349 2.48241 27.8228 4.30094 27.8228H35.6901C37.5172 27.8228 38.991 26.3404 38.991 24.5219V17.9114"
    fill="#F9BDB5" />
  <path
    d="M35.5941 16.7652C35.0597 11.7922 32.3448 8 29.0784 8H10.9102C7.63514 8 4.92027 11.8094 4.39453 16.7996"
    fill="#FDE8E5" />
  <path
    d="M36.915 25.5648V24.0824C36.915 18.2562 33.7261 13.5245 29.7873 13.5245H10.2058C6.27565 13.5245 3.07812 18.2476 3.07812 24.0824V25.6079"
    fill="#F9BDB5" />
  <path
    d="M34.0327 20.6952V22.1604C34.0327 22.9705 33.2915 23.6255 32.3779 23.6255H7.60791C6.69433 23.6255 5.95312 22.9705 5.95312 22.1604V20.6952"
    fill="#FDE8E5" />
  <path
    d="M1 18.8509C1 16.9721 2.12043 15.4293 3.48217 15.4293C4.84392 15.4293 5.96434 16.9721 5.96434 18.8509C5.54203 18.5407 4.6026 17.946 3.34427 17.9891C2.2497 18.0322 1.43093 18.5407 1.00862 18.8509H1Z"
    fill="#FDE8E5" />
  <path
    d="M34.0352 18.8509C34.0352 16.9721 35.1556 15.4293 36.5173 15.4293C37.8791 15.4293 38.9995 16.9721 38.9995 18.8509C38.5772 18.5407 37.6378 17.946 36.3794 17.9891C35.2849 18.0322 34.4661 18.5407 34.0438 18.8509H34.0352Z"
    fill="#FDE8E5" />
  <path
    d="M1 17.9114V24.5219C1 26.349 2.48241 27.8228 4.30094 27.8228H35.6901C37.5172 27.8228 38.991 26.3404 38.991 24.5219V17.9114"
    stroke="#595959" stroke-width="1.8" stroke-linecap="round" stroke-linejoin="round" />
  <path
    d="M38.9917 17.9115C38.9917 16.5411 37.8799 15.4293 36.5095 15.4293C35.1391 15.4293 34.0273 16.5411 34.0273 17.9115"
    stroke="#595959" stroke-width="1.8" stroke-linecap="round" stroke-linejoin="round" />
  <path d="M4.30078 27.823V31.1239" stroke="#595959" stroke-width="1.8" stroke-linecap="round"
    stroke-linejoin="round" />
  <path d="M35.6875 27.823V31.1239" stroke="#595959" stroke-width="1.8" stroke-linecap="round"
    stroke-linejoin="round" />
  <path
    d="M34.0327 17.9114V19.5662C34.0327 20.4797 33.2915 21.2209 32.3779 21.2209H7.60791C6.69433 21.2209 5.95312 20.4797 5.95312 19.5662V17.9114"
    stroke="#595959" stroke-width="1.8" stroke-linecap="round" stroke-linejoin="round" />
  <path
    d="M35.6899 15.5413V14.6105C35.6899 10.9648 32.7337 8 29.0794 8H10.9113C7.2656 8 4.30078 10.9562 4.30078 14.6105V15.5672"
    stroke="#595959" stroke-width="1.8" stroke-linecap="round" stroke-linejoin="round" />
  <path
    d="M1 17.9115C1 16.5411 2.11181 15.4293 3.48217 15.4293C4.85254 15.4293 5.96434 16.5411 5.96434 17.9115"
    stroke="#595959" stroke-width="1.8" stroke-linecap="round" stroke-linejoin="round" />
  <path d="M19.9961 8V21.2124" stroke="#595959" stroke-width="1.8" stroke-linecap="round"
    stroke-linejoin="round" />
</svg>
