<svg width="40" height="40" viewBox="0 0 40 40" fill="none" xmlns="http://www.w3.org/2000/svg">
<g clip-path="url(#clip0_23081_49738)">
<path d="M4.85892 6.7854C11.286 6.7854 17.7034 6.7854 24.1306 6.7854C24.1306 8.25362 24.1306 9.72185 24.1306 11.1901C17.5187 11.1123 10.9166 11.0345 4.30469 10.9567C4.48943 9.56627 4.67417 8.18556 4.86864 6.79512L4.85892 6.7854Z" fill="#DBF0F2"/>
<path d="M17.5202 10.908H10.5V17.5198H17.5202V10.908Z" fill="#E1DDEE"/>
<path d="M18.9395 38.9989H9.48847C4.80182 38.9989 1 35.197 1 30.5104C1 28.5268 1.70008 26.6016 2.96411 25.075L8.75922 18.1131C9.07037 17.7339 9.53709 17.52 10.033 17.52H18.395C18.8812 17.52 19.3479 17.7339 19.6688 18.1131L25.4639 25.075C26.7377 26.6016 27.428 28.5268 27.428 30.5104C27.428 35.197 23.6262 38.9989 18.9395 38.9989Z" fill="#71C9D3"/>
<path d="M18.2402 32.6981H10.1893C6.20271 32.6981 2.96484 30.0145 2.96484 26.6988C2.96484 25.2987 3.55797 23.9374 4.63726 22.8581L9.56699 17.9381C9.82952 17.6756 10.2282 17.52 10.6463 17.52H17.7638C18.1819 17.52 18.5805 17.6756 18.843 17.9381L23.7728 22.8581C24.8521 23.9374 25.4452 25.2987 25.4452 26.6988C25.4452 30.0145 22.2073 32.6981 18.2208 32.6981H18.2402Z" fill="#94D5DD"/>
<path d="M32.3867 6.77551H38.9986" stroke="#595959" stroke-width="2" stroke-linecap="round" stroke-linejoin="round"/>
<path d="M31.5586 3.47945L37.344 1" stroke="#595959" stroke-width="2" stroke-linecap="round" stroke-linejoin="round"/>
<path d="M31.5586 10.0817L37.344 12.5611" stroke="#595959" stroke-width="2" stroke-linecap="round" stroke-linejoin="round"/>
<path d="M12.5617 2.65295H23.2963C23.7533 2.65295 24.1227 3.02244 24.1227 3.47944V10.0913C24.1227 10.5483 23.7533 10.9178 23.2963 10.9178H4.29688C4.29688 6.35754 7.99174 2.65295 12.5617 2.65295Z" stroke="#595959" stroke-width="2" stroke-linecap="round" stroke-linejoin="round"/>
<path d="M10.9102 10.908H17.522V17.5198H10.9102V10.908Z" fill="#DBF0F2" stroke="#595959" stroke-width="2" stroke-linecap="round" stroke-linejoin="round"/>
<path d="M18.9395 38.9989H9.48847C4.80182 38.9989 1 35.197 1 30.5104C1 28.5268 1.70008 26.6016 2.96411 25.075L8.75922 18.1131C9.07037 17.7339 9.53709 17.52 10.033 17.52H18.395C18.8812 17.52 19.3479 17.7339 19.6688 18.1131L25.4639 25.075C26.7377 26.6016 27.428 28.5268 27.428 30.5104C27.428 35.197 23.6262 38.9989 18.9395 38.9989Z" stroke="#595959" stroke-width="2" stroke-linecap="round" stroke-linejoin="round"/>
<path d="M10.0352 17.52H18.3972" stroke="#595959" stroke-width="2" stroke-linecap="round" stroke-linejoin="round"/>
<path d="M23.3066 15.8669C20.5646 15.8669 18.3477 13.6499 18.3477 10.908" stroke="#595959" stroke-width="2" stroke-linecap="round" stroke-linejoin="round"/>
<path d="M27.4258 4.29602V9.25492" stroke="#595959" stroke-width="2" stroke-linecap="round" stroke-linejoin="round"/>
</g>
<defs>
<clipPath id="clip0_23081_49738">
<rect width="40" height="40" fill="white"/>
</clipPath>
</defs>
</svg>
