<svg width="40" height="40" viewBox="0 0 40 40" fill="none" xmlns="http://www.w3.org/2000/svg">
<g clip-path="url(#clip0_23081_49692)">
<path d="M16.1641 34.6359C16.1641 36.7589 17.8806 38.4754 20.0036 38.4754C22.1266 38.4754 23.8431 36.7589 23.8431 34.6359C23.8431 32.5129 22.1266 30.7964 20.0036 30.7964C17.8806 30.7964 16.1641 32.5129 16.1641 34.6359Z" fill="#DBF0F2"/>
<path d="M1.01129 9.87103C4.62496 14.7721 8.24993 19.6618 11.8636 24.5629C12.9929 23.7837 15.4321 22.3382 18.8312 22.0559C23.608 21.6719 27.0862 23.8401 28.1477 24.5629C31.7614 19.6618 35.3863 14.7721 39 9.87103C37.7013 8.58366 30.8467 2.01129 20.0508 2C11.107 2 4.44428 6.48321 1 9.87103H1.01129Z" fill="#94D5DD"/>
<path d="M6.44531 17.2225H33.5817C26.0834 9.72416 13.9437 9.72416 6.44531 17.2225Z" fill="#94D5DD"/>
<path d="M6.44531 17.2225C13.9437 9.72416 26.0834 9.72416 33.5817 17.2225" stroke="#282342" stroke-width="2" stroke-linecap="round" stroke-linejoin="round"/>
<path d="M11.8633 24.5741C16.3578 20.0796 23.6529 20.0796 28.1474 24.5741" stroke="#282342" stroke-width="2" stroke-linecap="round" stroke-linejoin="round"/>
<path d="M39.0043 9.88224C28.5134 -0.608696 11.5066 -0.608696 1.01562 9.88224" stroke="#595959" stroke-width="2" stroke-linecap="round" stroke-linejoin="round"/>
<path d="M33.5817 17.2225C26.0834 9.72416 13.9437 9.72416 6.44531 17.2225" stroke="#595959" stroke-width="2" stroke-linecap="round" stroke-linejoin="round"/>
<path d="M28.1513 24.5741C23.6568 20.0796 16.3617 20.0796 11.8672 24.5741" stroke="#595959" stroke-width="2" stroke-linecap="round" stroke-linejoin="round"/>
<path d="M16.1719 34.6359C16.1719 36.7589 17.8884 38.4754 20.0114 38.4754C22.1344 38.4754 23.8509 36.7589 23.8509 34.6359C23.8509 32.5129 22.1344 30.7964 20.0114 30.7964C17.8884 30.7964 16.1719 32.5129 16.1719 34.6359Z" stroke="#595959" stroke-width="2" stroke-linecap="round" stroke-linejoin="round"/>
</g>
<defs>
<clipPath id="clip0_23081_49692">
<rect width="40" height="40" fill="white"/>
</clipPath>
</defs>
</svg>
