<svg width="41" height="40" viewBox="0 0 41 40" fill="none" xmlns="http://www.w3.org/2000/svg">
<path d="M23.9871 20.6844L29.6714 26.3687C32.9944 24.8723 36.9102 26.3492 38.4066 29.6723C38.7952 30.5274 38.9896 31.4504 38.9896 32.393C38.9896 32.8496 38.941 33.3063 38.8535 33.7533C38.7564 34.2002 38.3191 34.482 37.8722 34.3946C37.7167 34.3654 37.571 34.2877 37.4544 34.1711L35.1029 31.8197C34.9475 31.6642 34.7434 31.5768 34.5199 31.5768H32.3823C31.9256 31.5768 31.5564 31.946 31.5564 32.4027V34.5403C31.5564 34.7541 31.6438 34.9679 31.7993 35.1233L34.1507 37.4747C34.4714 37.7954 34.4714 38.3201 34.1507 38.6407C34.0341 38.7573 33.8884 38.8351 33.7329 38.8642C33.2859 38.9614 32.8293 39.0002 32.3726 39.0002C28.7288 39.0002 25.7653 36.0464 25.7653 32.393C25.7653 31.4602 25.9693 30.5274 26.3483 29.6723L20.6641 23.9881" fill="#E1DDEE"/>
<path d="M19.3158 16.0205L13.6316 10.3363C15.1279 7.01321 13.651 3.09742 10.3279 1.60106C9.47288 1.2124 8.5498 1.01807 7.60729 1.01807C7.15061 1.01807 6.69393 1.06665 6.24697 1.1541C5.8 1.25126 5.51822 1.68851 5.60567 2.13548C5.63482 2.29094 5.71255 2.43669 5.82915 2.55329L8.18057 4.90471C8.33604 5.06017 8.42349 5.26422 8.42349 5.4877V7.62536C8.42349 8.08204 8.05425 8.45127 7.59757 8.45127H5.45992C5.24616 8.45127 5.03239 8.36382 4.87693 8.20835L2.52551 5.85694C2.20486 5.53629 1.68016 5.53629 1.35951 5.85694C1.24292 5.97353 1.16518 6.11928 1.13603 6.27475C1.03887 6.72171 1 7.17839 1 7.63507C1 11.2788 3.95385 14.2424 7.60729 14.2424C8.54009 14.2424 9.47288 14.0383 10.3279 13.6594L16.0122 19.3436" fill="#E1DDEE"/>
<path d="M5.24602 38.2617C4.25493 39.2042 2.68084 39.1556 1.74805 38.1645C0.844401 37.2123 0.844401 35.716 1.74805 34.7637L12.6015 23.9103L16.0995 27.418L5.24602 38.2714V38.2617Z" fill="#857CB9"/>
<path d="M8.03657 34.55C7.29811 35.2496 6.13212 35.2107 5.43252 34.4819C4.76208 33.7726 4.76208 32.6649 5.43252 31.9556L13.4876 23.9103L16.0916 26.5046L8.03657 34.55Z" fill="#A39BCC"/>
<path d="M36.1567 7.38238C35.6126 8.11112 34.5729 8.26659 33.8442 7.71274C33.7761 7.66416 33.7178 7.61558 33.6693 7.55728L32.3284 6.21639C31.6871 5.57509 31.6774 4.5257 32.3284 3.8844C32.3964 3.81638 32.4741 3.74837 32.5519 3.69007L36.215 1.14432C36.5454 0.920836 36.9923 0.959703 37.2741 1.24148L38.7608 2.72813C39.0523 3.01962 39.0814 3.4763 38.8385 3.80667L36.1761 7.37266L36.1567 7.38238Z" fill="#E1DDEE"/>
<path d="M5.24602 38.2617C4.25493 39.2042 2.68084 39.1556 1.74805 38.1645C0.844401 37.2123 0.844401 35.716 1.74805 34.7637L12.6015 23.9103L16.0995 27.418L5.24602 38.2714V38.2617Z" stroke="#595959" stroke-width="2" stroke-linecap="round" stroke-linejoin="round"/>
<path d="M10.8438 22.1614L17.8397 29.1671" stroke="#595959" stroke-width="2" stroke-linecap="round" stroke-linejoin="round"/>
<path d="M33.0637 6.9646L14.3398 25.6593" stroke="#595959" stroke-width="2" stroke-linecap="round" stroke-linejoin="round"/>
<path d="M36.1567 7.38238C35.6126 8.11112 34.5729 8.26659 33.8442 7.71274C33.7761 7.66416 33.7178 7.61558 33.6693 7.55728L32.3284 6.21639C31.6871 5.57509 31.6774 4.5257 32.3284 3.8844C32.3964 3.81638 32.4741 3.74837 32.5519 3.69007L36.215 1.14432C36.5454 0.920836 36.9923 0.959703 37.2741 1.24148L38.7608 2.72813C39.0523 3.01962 39.0814 3.4763 38.8385 3.80667L36.1761 7.37266L36.1567 7.38238Z" stroke="#595959" stroke-width="2" stroke-linecap="round" stroke-linejoin="round"/>
<path d="M19.3158 16.0205L13.6316 10.3363C15.1279 7.01321 13.651 3.09742 10.3279 1.60106C9.47288 1.2124 8.5498 1.01807 7.60729 1.01807C7.15061 1.01807 6.69393 1.06665 6.24697 1.1541C5.8 1.25126 5.51822 1.68851 5.60567 2.13548C5.63482 2.29094 5.71255 2.43669 5.82915 2.55329L8.18057 4.90471C8.33604 5.06017 8.42349 5.26422 8.42349 5.4877V7.62536C8.42349 8.08204 8.05425 8.45127 7.59757 8.45127H5.45992C5.24616 8.45127 5.03239 8.36382 4.87693 8.20835L2.52551 5.85694C2.20486 5.53629 1.68016 5.53629 1.35951 5.85694C1.24292 5.97353 1.16518 6.11928 1.13603 6.27475C1.03887 6.72171 1 7.17839 1 7.63507C1 11.2788 3.95385 14.2424 7.60729 14.2424C8.54009 14.2424 9.47288 14.0383 10.3279 13.6594L16.0122 19.3436" stroke="#595959" stroke-width="2" stroke-linecap="round" stroke-linejoin="round"/>
<path d="M23.9871 20.6844L29.6714 26.3687C32.9944 24.8723 36.9102 26.3492 38.4066 29.6723C38.7952 30.5274 38.9896 31.4504 38.9896 32.393C38.9896 32.8496 38.941 33.3063 38.8535 33.7533C38.7564 34.2002 38.3191 34.482 37.8722 34.3946C37.7167 34.3654 37.571 34.2877 37.4544 34.1711L35.1029 31.8197C34.9475 31.6642 34.7434 31.5768 34.5199 31.5768H32.3823C31.9256 31.5768 31.5564 31.946 31.5564 32.4027V34.5403C31.5564 34.7541 31.6438 34.9679 31.7993 35.1233L34.1507 37.4747C34.4714 37.7954 34.4714 38.3201 34.1507 38.6407C34.0341 38.7573 33.8884 38.8351 33.7329 38.8642C33.2859 38.9614 32.8293 39.0002 32.3726 39.0002C28.7288 39.0002 25.7653 36.0464 25.7653 32.393C25.7653 31.4602 25.9693 30.5274 26.3483 29.6723L20.6641 23.9881" stroke="#595959" stroke-width="2" stroke-linecap="round" stroke-linejoin="round"/>
</svg>
