<svg width="108" height="109" viewBox="0 0 108 109" fill="none" xmlns="http://www.w3.org/2000/svg">
<rect x="0.432" y="0.932" width="107.136" height="107.136" rx="12.528" fill="white"/>
<path d="M65.9261 90.542H13.7944C13.5696 90.542 13.3478 90.4897 13.1468 90.3892C12.9457 90.2886 12.7708 90.1426 12.6359 89.9628L8.29157 84.1704C8.13022 83.9552 8.03196 83.6994 8.00781 83.4316C7.98365 83.1637 8.03456 82.8944 8.15483 82.6539C8.2751 82.4134 8.45998 82.2111 8.68874 82.0697C8.91751 81.9283 9.18113 81.8534 9.45006 81.8534H68.8223C69.0698 81.8521 69.3135 81.9142 69.5302 82.0338C69.7468 82.1534 69.9292 82.3265 70.0599 82.5367C70.1906 82.7468 70.2653 82.987 70.2768 83.2342C70.2883 83.4814 70.2363 83.7274 70.1256 83.9488L67.2294 89.7412C67.1086 89.9831 66.9225 90.1862 66.6921 90.3278C66.4618 90.4693 66.1965 90.5435 65.9261 90.542ZM14.5184 87.6458H65.0312L66.4793 84.7496H12.3463L14.5184 87.6458ZM84.7515 90.542V87.6458C85.9037 87.6458 87.0087 87.1881 87.8234 86.3734C88.6381 85.5587 89.0958 84.4537 89.0958 83.3015V41.3065H57.2375V58.6837H54.3413V39.8584C54.3413 39.4743 54.4939 39.106 54.7654 38.8344C55.037 38.5628 55.4053 38.4103 55.7894 38.4103H90.5439C90.928 38.4103 91.2963 38.5628 91.5679 38.8344C91.8394 39.106 91.992 39.4743 91.992 39.8584V83.3015C91.9897 85.2211 91.2261 87.0614 89.8688 88.4188C88.5114 89.7762 86.6711 90.5397 84.7515 90.542Z" fill="#9E59FF"/>
<path d="M93.4399 80.4052H90.5437C90.1596 80.4052 89.7913 80.2526 89.5197 79.9811C89.2482 79.7095 89.0956 79.3412 89.0956 78.9571V47.0988C89.0956 46.7148 89.2482 46.3464 89.5197 46.0748C89.7913 45.8033 90.1596 45.6507 90.5437 45.6507H93.4399C95.3595 45.653 97.1998 46.4166 98.5572 47.7739C99.9145 49.1313 100.678 50.9716 100.68 52.8912V73.1647C100.678 75.0843 99.9145 76.9246 98.5572 78.282C97.1998 79.6393 95.3595 80.4029 93.4399 80.4052ZM91.9918 77.509H93.4399C94.5921 77.509 95.6971 77.0513 96.5118 76.2366C97.3265 75.4219 97.7842 74.3169 97.7842 73.1647V52.8912C97.7842 51.739 97.3265 50.6341 96.5118 49.8193C95.6971 49.0046 94.5921 48.5469 93.4399 48.5469H91.9918V77.509ZM70.2702 31.1697H67.374C67.3558 29.4333 67.9739 27.7504 69.1117 26.4387C69.8571 25.6203 70.2702 24.5532 70.2702 23.4462C70.2702 22.3392 69.8571 21.2721 69.1117 20.4537C67.9739 19.142 67.3558 17.4591 67.374 15.7227C67.3552 13.9867 67.9734 12.3041 69.1117 10.9932C69.8697 10.1824 70.2848 9.10985 70.2702 8H73.1664C73.1847 9.73634 72.5665 11.4193 71.4287 12.731C70.6705 13.5411 70.2553 14.6133 70.2702 15.7227C70.2557 16.8326 70.6708 17.9051 71.4287 18.716C72.5505 20.0368 73.1664 21.7133 73.1664 23.4462C73.1664 25.1791 72.5505 26.8556 71.4287 28.1764C70.6708 28.9873 70.2557 30.0598 70.2702 31.1697ZM78.9589 31.1697H76.0626C76.0444 29.4333 76.6625 27.7504 77.8004 26.4387C78.5457 25.6203 78.9589 24.5532 78.9589 23.4462C78.9589 22.3392 78.5457 21.2721 77.8004 20.4537C76.6625 19.142 76.0444 17.4591 76.0626 15.7227C76.0438 13.9867 76.6621 12.3041 77.8004 10.9932C78.5583 10.1824 78.9734 9.10985 78.9589 8H81.8551C81.8733 9.73634 81.2552 11.4193 80.1173 12.731C79.3591 13.5411 78.9439 14.6133 78.9589 15.7227C78.9443 16.8326 79.3594 17.9051 80.1173 18.716C81.2391 20.0368 81.855 21.7133 81.855 23.4462C81.855 25.1791 81.2391 26.8556 80.1173 28.1764C79.3594 28.9873 78.9443 30.0598 78.9589 31.1697ZM53.3709 84.0255L50.8656 82.5774C51.2456 81.9165 51.4453 81.1675 51.4449 80.4052C51.4414 77.7178 50.3723 75.1415 48.4721 73.2413C46.5718 71.341 43.9955 70.2719 41.3081 70.2685H23.9309C21.2435 70.2719 18.6672 71.341 16.7669 73.2413C14.8667 75.1415 13.7976 77.7178 13.7942 80.4052C13.7937 81.1675 13.9935 81.9165 14.3734 82.5774L11.8653 84.0255C11.2307 82.9245 10.8971 81.6759 10.898 80.4052C10.9018 76.9498 12.2761 73.6371 14.7194 71.1938C17.1628 68.7504 20.4755 67.3761 23.9309 67.3723H41.3081C44.7635 67.3761 48.0763 68.7504 50.5196 71.1938C52.9629 73.6371 54.3372 76.9498 54.3411 80.4052C54.3417 81.6763 54.007 82.9251 53.3709 84.0255Z" fill="#030101"/>
<path d="M29.7234 78.9571H26.8271C26.826 76.1655 27.8232 73.4654 29.6386 71.3446C31.454 69.2238 33.968 67.8221 36.7264 67.3926L37.2014 70.2482L36.9639 68.8204L37.2072 70.2482C36.9016 70.3004 29.7234 71.6312 29.7234 78.9571Z" fill="black"/>
<path d="M22.4826 78.9571H19.5864C19.5853 76.1655 20.5825 73.4654 22.3979 71.3446C24.2133 69.2238 26.7272 67.8221 29.4857 67.3926L29.9606 70.2482L29.7232 68.8204L29.9664 70.2482C29.6609 70.3004 22.4826 71.6312 22.4826 78.9571ZM36.9637 78.9571H34.0675C34.1186 76.4453 34.924 74.007 36.379 71.9589C37.8339 69.9107 39.8712 68.3475 42.2261 67.4722L43.2861 70.1686C41.4736 70.8323 39.9021 72.0248 38.7749 73.5917C37.6477 75.1585 37.0167 77.0277 36.9637 78.9571Z" fill="black"/>
<path d="M67.3737 80.4052H64.4775V74.6128C64.4794 72.2591 63.6621 69.9781 62.1659 68.1611C60.6697 66.3442 58.5879 65.1045 56.2775 64.6548C53.9672 64.2051 51.5724 64.5734 49.5039 65.6965C47.4354 66.8196 45.8223 68.6275 44.9411 70.8101L42.2563 69.724C43.3895 66.9184 45.4636 64.5946 48.1228 63.151C50.7821 61.7074 53.8607 61.234 56.8308 61.8121C59.8008 62.3902 62.4772 63.9837 64.4008 66.3193C66.3245 68.6549 67.3755 71.587 67.3737 74.6128V80.4052Z" fill="black"/>
<path d="M49.9965 65.9241H52.8927V68.8204H49.9965V65.9241ZM55.7889 65.9241H58.6852V68.8204H55.7889V65.9241ZM12.5891 76.8646C9.54828 72.5322 7.94369 67.3548 8.00151 62.062C8.00151 55.408 15.4824 49.995 24.6793 49.995H29.0656C38.2104 49.995 45.6522 55.408 45.6522 62.062C45.6516 62.4355 45.6313 62.8087 45.5914 63.18L42.7126 62.8831C42.7408 62.6128 42.7553 62.3411 42.756 62.0693C42.756 57.0053 36.6146 52.8912 29.0656 52.8912H24.6793C17.0811 52.8912 10.8977 57.0053 10.8977 62.062C10.8305 66.7841 12.2668 71.4051 14.9987 75.2572L12.5891 76.8646Z" fill="black"/>
<path d="M25.379 51.5778C25.3397 51.137 25.2463 50.7027 25.1009 50.2847C25.0924 50.2598 25.0846 50.2347 25.0778 50.2094C24.9407 49.7168 24.6416 49.2849 24.2289 48.9832C23.8161 48.6816 23.3137 48.5279 22.8028 48.5469H21.0347V45.6507H22.8028C23.9206 45.6359 25.0133 45.9818 25.919 46.637C26.8247 47.2923 27.495 48.2221 27.8306 49.2884C27.848 49.3361 27.8639 49.3854 27.877 49.4332C28.0806 50.0411 28.2142 50.6703 28.2752 51.3085L25.379 51.5778Z" fill="black"/>
<path d="M28.2751 52.8912H26.827C26.4429 52.8912 26.0746 52.7387 25.803 52.4671C25.5315 52.1955 25.3789 51.8272 25.3789 51.4431V48.5469C25.3789 48.4555 25.3876 48.3644 25.405 48.2747C26.226 43.9767 30.6558 41.3064 36.9637 41.3064H37.1969C38.2422 41.3063 39.285 41.4086 40.3103 41.6119C41.8422 41.8978 43.3448 42.3228 44.7994 42.8819C45.1265 43.0292 45.3872 43.2927 45.5311 43.6212C45.675 43.9497 45.6919 44.3199 45.5785 44.6602C45.4656 44.9976 42.6678 52.8912 28.2751 52.8912ZM28.2751 49.995C37.0796 49.995 40.7201 46.8439 42.0929 45.0092C41.3173 44.7939 40.5338 44.608 39.7441 44.4517C38.9052 44.2858 38.052 44.2024 37.1969 44.2026H36.9637C32.2038 44.2026 28.892 45.9201 28.2751 48.6917V49.995Z" fill="black"/>
<path d="M27.8512 52.467L25.8036 50.4193C26.1163 50.1065 33.59 42.7545 44.2046 42.7545V45.6507C34.776 45.6507 27.9192 52.3989 27.8512 52.467ZM83.3034 44.2026H86.1996V47.0988H83.3034V44.2026ZM83.3034 49.995H86.1996V52.8912H83.3034V49.995ZM39.8603 70.2685H25.3793C24.9952 70.2685 24.6269 70.1159 24.3553 69.8444C24.0837 69.5728 23.9312 69.2045 23.9312 68.8204C23.9335 66.9008 24.697 65.0605 26.0544 63.7031C27.4118 62.3457 29.2521 61.5822 31.1717 61.5799H34.0679C35.9875 61.5822 37.8278 62.3457 39.1852 63.7031C40.5425 65.0605 41.3061 66.9008 41.3084 68.8204C41.3084 69.2045 41.1558 69.5728 40.8843 69.8444C40.6127 70.1159 40.2444 70.2685 39.8603 70.2685ZM27.075 67.3723H38.1646C37.864 66.5259 37.3089 65.7931 36.5754 65.2746C35.842 64.7561 34.9661 64.4772 34.0679 64.4761H31.1717C30.2735 64.4772 29.3976 64.7561 28.6641 65.2746C27.9307 65.7931 27.3756 66.5259 27.075 67.3723Z" fill="black"/>
<path d="M90.5439 99.2306H18.1387C15.4513 99.2271 12.875 98.1581 10.9747 96.2578C9.07448 94.3575 8.0054 91.7812 8.00195 89.0939C8.00195 88.7098 8.15452 88.3415 8.42609 88.0699C8.69767 87.7983 9.066 87.6458 9.45006 87.6458H99.2325C99.6166 87.6458 99.9849 87.7983 100.256 88.0699C100.528 88.3415 100.681 88.7098 100.681 89.0939C100.677 91.7812 99.6081 94.3575 97.7078 96.2578C95.8076 98.1581 93.2313 99.2271 90.5439 99.2306ZM11.043 90.542C11.3788 92.1764 12.268 93.645 13.5606 94.7002C14.8532 95.7554 16.4701 96.3325 18.1387 96.3344H90.5439C92.2125 96.3325 93.8294 95.7554 95.122 94.7002C96.4146 93.645 97.3038 92.1764 97.6396 90.542H11.043Z" fill="#FFC700"/>
<rect x="0.432" y="0.932" width="107.136" height="107.136" rx="12.528" stroke="black" stroke-width="0.864"/>
</svg>

