<svg width="113" height="114" viewBox="0 0 113 114" fill="none" xmlns="http://www.w3.org/2000/svg">
<rect x="0.5" y="1" width="112" height="112" rx="9.65234" fill="white"/>
<mask id="path-2-inside-1_2_53" fill="white">
<path d="M97.1083 53.6012V51.7031C97.1083 46.5521 95.0621 41.6121 91.4198 37.9698C87.7775 34.3275 82.8375 32.2812 77.6865 32.2812C72.5355 32.2812 67.5954 34.3275 63.9531 37.9698C60.3108 41.6121 58.2646 46.5521 58.2646 51.7031V58.7656H51.2021C50.7338 58.7656 50.2847 58.9516 49.9536 59.2828C49.6225 59.6139 49.4365 60.063 49.4365 60.5312V67.5938C49.4365 68.062 49.6225 68.5111 49.9536 68.8422C50.2847 69.1734 50.7338 69.3594 51.2021 69.3594H51.3787L53.0507 85.25H45.9052V9.32812C45.9052 7.92331 45.3472 6.57603 44.3538 5.58267C43.3605 4.58931 42.0132 4.03125 40.6083 4.03125C39.2035 4.03125 37.8562 4.58931 36.8629 5.58267C35.8695 6.57603 35.3115 7.92331 35.3115 9.32812V85.25H17.6552C16.719 85.2511 15.8215 85.6235 15.1595 86.2855C14.4975 86.9475 14.1251 87.845 14.124 88.7812V93.8607L10.6455 107.775C10.5804 108.035 10.5755 108.307 10.6312 108.569C10.6869 108.832 10.8016 109.078 10.9667 109.29C11.1318 109.501 11.343 109.672 11.5841 109.79C11.8253 109.908 12.09 109.969 12.3584 109.969H95.3427C95.811 109.969 96.2601 109.783 96.5912 109.452C96.9223 109.12 97.1083 108.671 97.1083 108.203V101.233L99.6005 77.5581C100.454 77.0899 101.165 76.3997 101.659 75.5606C102.153 74.7214 102.411 73.7645 102.405 72.7909V60.0898C102.403 58.564 101.876 57.0855 100.911 55.9035C99.9459 54.7215 98.6029 53.9084 97.1083 53.6012ZM61.7958 51.7031C61.7958 49.6163 62.2069 47.55 63.0055 45.622C63.804 43.6941 64.9745 41.9423 66.4501 40.4668C67.9257 38.9912 69.6775 37.8207 71.6054 37.0221C73.5333 36.2235 75.5997 35.8125 77.6865 35.8125C79.7733 35.8125 81.8396 36.2235 83.7676 37.0221C85.6955 37.8207 87.4473 38.9912 88.9228 40.4668C90.3984 41.9423 91.5689 43.6941 92.3675 45.622C93.1661 47.55 93.5771 49.6163 93.5771 51.7031V53.4688H77.2451C75.7193 53.4705 74.2407 53.9983 73.0587 54.9632C71.8767 55.9281 71.0636 57.2711 70.7564 58.7656H61.7958V51.7031ZM52.9677 62.2969H70.624V65.8281H52.9677V62.2969ZM54.9289 69.3594H70.624V72.7935C70.627 73.5142 70.7723 74.2271 71.0517 74.8914C71.3311 75.5557 71.7389 76.1582 72.2519 76.6644C72.7437 77.1557 73.3289 77.5435 73.973 77.805C74.6171 78.0666 75.307 78.1965 76.0021 78.1873C77.2769 78.1646 78.5012 77.6848 79.4521 76.8353C80.4223 77.7058 81.6798 78.1873 82.9833 78.1873C84.2868 78.1873 85.5444 77.7058 86.5146 76.8353C87.4845 77.7055 88.7416 78.1869 90.0446 78.1873C91.3477 78.1876 92.605 77.7068 93.5753 76.837C94.2602 77.4525 95.0951 77.8768 95.996 78.0672L93.7537 99.375H68.4712L67.0927 93.8607V88.7812C67.0916 87.845 66.7192 86.9475 66.0572 86.2855C65.3952 85.6235 64.4977 85.2511 63.5615 85.25H56.6009L54.9289 69.3594ZM38.8427 9.32812C38.8427 8.85985 39.0287 8.41076 39.3599 8.07964C39.691 7.74852 40.1401 7.5625 40.6083 7.5625C41.0766 7.5625 41.5257 7.74852 41.8568 8.07964C42.188 8.41076 42.374 8.85985 42.374 9.32812V85.25H38.8427V9.32812ZM17.6552 88.7812H63.5615V92.3125H17.6552V88.7812ZM21.6822 106.438L24.3306 95.8438H27.7533L25.1048 106.438H21.6822ZM17.2681 95.8438H20.6908L18.0423 106.438H14.6197L17.2681 95.8438ZM31.3931 95.8438H35.0771L33.7529 106.438H28.7447L31.3931 95.8438ZM37.3115 106.438L38.6357 95.8438H42.581L43.9052 106.438H37.3115ZM47.4638 106.438L46.1396 95.8438H49.8236L52.472 106.438H47.4638ZM56.1119 106.438L53.4634 95.8438H56.8861L59.5345 106.438H56.1119ZM63.1744 106.438L60.5259 95.8438H63.9486L66.597 106.438H63.1744ZM93.5771 106.438H70.2369L69.354 102.906H93.5771V106.438ZM98.874 67.5938V72.7909C98.8822 73.2561 98.7136 73.7071 98.4023 74.0529C98.091 74.3987 97.6601 74.6135 97.1966 74.654C96.9576 74.666 96.7187 74.6293 96.4943 74.546C96.27 74.4628 96.0649 74.3349 95.8915 74.1699C95.7181 74.005 95.58 73.8066 95.4857 73.5866C95.3914 73.3667 95.3427 73.1299 95.3427 72.8906V65.8281H91.8115V72.8906C91.8115 73.3589 91.6255 73.808 91.2943 74.1391C90.9632 74.4702 90.5141 74.6562 90.0458 74.6562C89.5776 74.6562 89.1285 74.4702 88.7974 74.1391C88.4662 73.808 88.2802 73.3589 88.2802 72.8906V65.8281H84.749V72.8906C84.749 73.3589 84.563 73.808 84.2318 74.1391C83.9007 74.4702 83.4516 74.6562 82.9833 74.6562C82.5151 74.6562 82.066 74.4702 81.7349 74.1391C81.4037 73.808 81.2177 73.3589 81.2177 72.8906V65.8281H77.6865V72.8906C77.687 73.3543 77.5049 73.7994 77.1797 74.1299C76.8545 74.4603 76.4122 74.6494 75.9487 74.6562H75.9244C75.4748 74.6517 75.0452 74.4692 74.7299 74.1486C74.5498 73.9717 74.4064 73.7609 74.3079 73.5284C74.2094 73.2959 74.1578 73.0462 74.1561 72.7937V60.0898C74.157 59.2706 74.4828 58.4852 75.0621 57.906C75.6413 57.3267 76.4267 57.0009 77.2459 57H95.785C96.6042 57.0009 97.3896 57.3267 97.9689 57.906C98.5482 58.4852 98.874 59.2706 98.8749 60.0898L98.874 67.5938Z"/>
</mask>
<path d="M97.1083 53.6012V51.7031C97.1083 46.5521 95.0621 41.6121 91.4198 37.9698C87.7775 34.3275 82.8375 32.2812 77.6865 32.2812C72.5355 32.2812 67.5954 34.3275 63.9531 37.9698C60.3108 41.6121 58.2646 46.5521 58.2646 51.7031V58.7656H51.2021C50.7338 58.7656 50.2847 58.9516 49.9536 59.2828C49.6225 59.6139 49.4365 60.063 49.4365 60.5312V67.5938C49.4365 68.062 49.6225 68.5111 49.9536 68.8422C50.2847 69.1734 50.7338 69.3594 51.2021 69.3594H51.3787L53.0507 85.25H45.9052V9.32812C45.9052 7.92331 45.3472 6.57603 44.3538 5.58267C43.3605 4.58931 42.0132 4.03125 40.6083 4.03125C39.2035 4.03125 37.8562 4.58931 36.8629 5.58267C35.8695 6.57603 35.3115 7.92331 35.3115 9.32812V85.25H17.6552C16.719 85.2511 15.8215 85.6235 15.1595 86.2855C14.4975 86.9475 14.1251 87.845 14.124 88.7812V93.8607L10.6455 107.775C10.5804 108.035 10.5755 108.307 10.6312 108.569C10.6869 108.832 10.8016 109.078 10.9667 109.29C11.1318 109.501 11.343 109.672 11.5841 109.79C11.8253 109.908 12.09 109.969 12.3584 109.969H95.3427C95.811 109.969 96.2601 109.783 96.5912 109.452C96.9223 109.12 97.1083 108.671 97.1083 108.203V101.233L99.6005 77.5581C100.454 77.0899 101.165 76.3997 101.659 75.5606C102.153 74.7214 102.411 73.7645 102.405 72.7909V60.0898C102.403 58.564 101.876 57.0855 100.911 55.9035C99.9459 54.7215 98.6029 53.9084 97.1083 53.6012ZM61.7958 51.7031C61.7958 49.6163 62.2069 47.55 63.0055 45.622C63.804 43.6941 64.9745 41.9423 66.4501 40.4668C67.9257 38.9912 69.6775 37.8207 71.6054 37.0221C73.5333 36.2235 75.5997 35.8125 77.6865 35.8125C79.7733 35.8125 81.8396 36.2235 83.7676 37.0221C85.6955 37.8207 87.4473 38.9912 88.9228 40.4668C90.3984 41.9423 91.5689 43.6941 92.3675 45.622C93.1661 47.55 93.5771 49.6163 93.5771 51.7031V53.4688H77.2451C75.7193 53.4705 74.2407 53.9983 73.0587 54.9632C71.8767 55.9281 71.0636 57.2711 70.7564 58.7656H61.7958V51.7031ZM52.9677 62.2969H70.624V65.8281H52.9677V62.2969ZM54.9289 69.3594H70.624V72.7935C70.627 73.5142 70.7723 74.2271 71.0517 74.8914C71.3311 75.5557 71.7389 76.1582 72.2519 76.6644C72.7437 77.1557 73.3289 77.5435 73.973 77.805C74.6171 78.0666 75.307 78.1965 76.0021 78.1873C77.2769 78.1646 78.5012 77.6848 79.4521 76.8353C80.4223 77.7058 81.6798 78.1873 82.9833 78.1873C84.2868 78.1873 85.5444 77.7058 86.5146 76.8353C87.4845 77.7055 88.7416 78.1869 90.0446 78.1873C91.3477 78.1876 92.605 77.7068 93.5753 76.837C94.2602 77.4525 95.0951 77.8768 95.996 78.0672L93.7537 99.375H68.4712L67.0927 93.8607V88.7812C67.0916 87.845 66.7192 86.9475 66.0572 86.2855C65.3952 85.6235 64.4977 85.2511 63.5615 85.25H56.6009L54.9289 69.3594ZM38.8427 9.32812C38.8427 8.85985 39.0287 8.41076 39.3599 8.07964C39.691 7.74852 40.1401 7.5625 40.6083 7.5625C41.0766 7.5625 41.5257 7.74852 41.8568 8.07964C42.188 8.41076 42.374 8.85985 42.374 9.32812V85.25H38.8427V9.32812ZM17.6552 88.7812H63.5615V92.3125H17.6552V88.7812ZM21.6822 106.438L24.3306 95.8438H27.7533L25.1048 106.438H21.6822ZM17.2681 95.8438H20.6908L18.0423 106.438H14.6197L17.2681 95.8438ZM31.3931 95.8438H35.0771L33.7529 106.438H28.7447L31.3931 95.8438ZM37.3115 106.438L38.6357 95.8438H42.581L43.9052 106.438H37.3115ZM47.4638 106.438L46.1396 95.8438H49.8236L52.472 106.438H47.4638ZM56.1119 106.438L53.4634 95.8438H56.8861L59.5345 106.438H56.1119ZM63.1744 106.438L60.5259 95.8438H63.9486L66.597 106.438H63.1744ZM93.5771 106.438H70.2369L69.354 102.906H93.5771V106.438ZM98.874 67.5938V72.7909C98.8822 73.2561 98.7136 73.7071 98.4023 74.0529C98.091 74.3987 97.6601 74.6135 97.1966 74.654C96.9576 74.666 96.7187 74.6293 96.4943 74.546C96.27 74.4628 96.0649 74.3349 95.8915 74.1699C95.7181 74.005 95.58 73.8066 95.4857 73.5866C95.3914 73.3667 95.3427 73.1299 95.3427 72.8906V65.8281H91.8115V72.8906C91.8115 73.3589 91.6255 73.808 91.2943 74.1391C90.9632 74.4702 90.5141 74.6562 90.0458 74.6562C89.5776 74.6562 89.1285 74.4702 88.7974 74.1391C88.4662 73.808 88.2802 73.3589 88.2802 72.8906V65.8281H84.749V72.8906C84.749 73.3589 84.563 73.808 84.2318 74.1391C83.9007 74.4702 83.4516 74.6562 82.9833 74.6562C82.5151 74.6562 82.066 74.4702 81.7349 74.1391C81.4037 73.808 81.2177 73.3589 81.2177 72.8906V65.8281H77.6865V72.8906C77.687 73.3543 77.5049 73.7994 77.1797 74.1299C76.8545 74.4603 76.4122 74.6494 75.9487 74.6562H75.9244C75.4748 74.6517 75.0452 74.4692 74.7299 74.1486C74.5498 73.9717 74.4064 73.7609 74.3079 73.5284C74.2094 73.2959 74.1578 73.0462 74.1561 72.7937V60.0898C74.157 59.2706 74.4828 58.4852 75.0621 57.906C75.6413 57.3267 76.4267 57.0009 77.2459 57H95.785C96.6042 57.0009 97.3896 57.3267 97.9689 57.906C98.5482 58.4852 98.874 59.2706 98.8749 60.0898L98.874 67.5938Z" fill="#FFC700" stroke="black" stroke-width="0.882812" mask="url(#path-2-inside-1_2_53)"/>
<path d="M86.515 87.0156H90.0463V95.8438H86.515V87.0156ZM86.515 79.9531H90.0463V83.4844H86.515V79.9531ZM21.2776 61.0896C21.3949 61.4411 21.6197 61.7468 21.9203 61.9634C22.2209 62.18 22.582 62.2966 22.9525 62.2966C23.3231 62.2966 23.6842 62.18 23.9848 61.9634C24.2854 61.7468 24.5102 61.4411 24.6275 61.0896C25.0921 59.7067 25.8708 58.4502 26.9024 57.4187C27.934 56.3871 29.1905 55.6085 30.5734 55.1439C30.9251 55.0268 31.2309 54.8019 31.4477 54.5013C31.6644 54.2006 31.7811 53.8394 31.7811 53.4688C31.7811 53.0981 31.6644 52.7369 31.4477 52.4362C31.2309 52.1356 30.9251 51.9107 30.5734 51.7936C29.1905 51.329 27.934 50.5504 26.9024 49.5188C25.8708 48.4873 25.0921 47.2308 24.6275 45.8479C24.5102 45.4964 24.2854 45.1907 23.9848 44.9741C23.6842 44.7575 23.3231 44.6409 22.9525 44.6409C22.582 44.6409 22.2209 44.7575 21.9203 44.9741C21.6197 45.1907 21.3949 45.4964 21.2776 45.8479C20.813 47.2308 20.0343 48.4873 19.0027 49.5188C17.9711 50.5504 16.7146 51.329 15.3317 51.7936C14.98 51.9107 14.6742 52.1356 14.4574 52.4362C14.2407 52.7369 14.124 53.0981 14.124 53.4688C14.124 53.8394 14.2407 54.2006 14.4574 54.5013C14.6742 54.8019 14.98 55.0268 15.3317 55.1439C16.7146 55.6085 17.9711 56.3871 19.0027 57.4187C20.0343 58.4502 20.813 59.7067 21.2776 61.0896ZM22.9525 50.2833C23.8219 51.5215 24.8996 52.5993 26.1377 53.4688C24.8996 54.3382 23.8219 55.416 22.9525 56.6542C22.0832 55.416 21.0055 54.3382 19.7674 53.4688C21.0055 52.5993 22.0832 51.5215 22.9525 50.2833ZM108.261 30.6061C106.878 30.1415 105.621 29.3629 104.59 28.3313C103.558 27.2998 102.78 26.0433 102.315 24.6604C102.198 24.3089 101.973 24.0032 101.672 23.7866C101.372 23.57 101.011 23.4534 100.64 23.4534C100.27 23.4534 99.9084 23.57 99.6078 23.7866C99.3072 24.0032 99.0824 24.3089 98.9651 24.6604C98.5005 26.0433 97.7218 27.2998 96.6902 28.3313C95.6586 29.3629 94.4021 30.1415 93.0192 30.6061C92.6675 30.7233 92.3617 30.9481 92.1449 31.2487C91.9282 31.5494 91.8115 31.9106 91.8115 32.2813C91.8115 32.6519 91.9282 33.0131 92.1449 33.3138C92.3617 33.6144 92.6675 33.8393 93.0192 33.9564C94.4021 34.421 95.6586 35.1996 96.6902 36.2312C97.7218 37.2627 98.5005 38.5192 98.9651 39.9021C99.0824 40.2536 99.3072 40.5593 99.6078 40.7759C99.9084 40.9925 100.27 41.1091 100.64 41.1091C101.011 41.1091 101.372 40.9925 101.672 40.7759C101.973 40.5593 102.198 40.2536 102.315 39.9021C102.78 38.5192 103.558 37.2627 104.59 36.2312C105.621 35.1996 106.878 34.421 108.261 33.9564C108.613 33.8393 108.918 33.6144 109.135 33.3138C109.352 33.0131 109.469 32.6519 109.469 32.2813C109.469 31.9106 109.352 31.5494 109.135 31.2487C108.918 30.9481 108.613 30.7233 108.261 30.6061ZM100.64 35.4667C99.7707 34.2285 98.693 33.1507 97.4549 32.2813C98.693 31.4118 99.7707 30.334 100.64 29.0958C101.509 30.334 102.587 31.4118 103.825 32.2813C102.587 33.1507 101.509 34.2285 100.64 35.4667ZM12.3588 83.4844C12.7293 83.4844 13.0905 83.3678 13.3911 83.1511C13.6917 82.9344 13.9165 82.6287 14.0337 82.2771C14.4984 80.8942 15.277 79.6377 16.3086 78.6062C17.3402 77.5746 18.5967 76.796 19.9797 76.3314C20.3313 76.2143 20.6372 75.9894 20.8539 75.6888C21.0707 75.3881 21.1873 75.0269 21.1873 74.6562C21.1873 74.2856 21.0707 73.9244 20.8539 73.6237C20.6372 73.3231 20.3313 73.0982 19.9797 72.9811C18.5967 72.5165 17.3402 71.7379 16.3086 70.7063C15.277 69.6748 14.4984 68.4183 14.0337 67.0354C13.9165 66.6839 13.6916 66.3782 13.391 66.1616C13.0904 65.945 12.7293 65.8284 12.3588 65.8284C11.9883 65.8284 11.6271 65.945 11.3265 66.1616C11.0259 66.3782 10.8011 66.6839 10.6839 67.0354C10.2192 68.4183 9.44058 69.6748 8.40897 70.7063C7.37736 71.7379 6.12084 72.5165 4.73791 72.9811C4.38627 73.0982 4.08041 73.3231 3.86366 73.6237C3.64691 73.9244 3.53027 74.2856 3.53027 74.6562C3.53027 75.0269 3.64691 75.3881 3.86366 75.6888C4.08041 75.9894 4.38627 76.2143 4.73791 76.3314C6.12084 76.796 7.37736 77.5746 8.40897 78.6062C9.44058 79.6377 10.2192 80.8942 10.6839 82.2771C10.8011 82.6287 11.0259 82.9344 11.3265 83.1511C11.6271 83.3678 11.9882 83.4844 12.3588 83.4844ZM12.3588 71.4708C13.2281 72.709 14.3059 73.7868 15.544 74.6562C14.3059 75.5257 13.2281 76.6035 12.3588 77.8417C11.4895 76.6035 10.4117 75.5257 9.1736 74.6562C10.4117 73.7868 11.4895 72.709 12.3588 71.4708Z" fill="#9E59FF"/>
<rect x="0.5" y="1" width="112" height="112" rx="9.65234" stroke="black"/>
</svg>
