<svg width="126" height="121" viewBox="0 0 126 121" fill="none" xmlns="http://www.w3.org/2000/svg">
<rect x="0.39375" y="0.816357" width="125.213" height="119.367" rx="8.69903" fill="white" stroke="black" stroke-width="0.7875"/>
<path d="M104.848 29.4296H103.205V12.9935C103.205 11.1806 101.73 9.70624 99.9173 9.70624H86.7684C84.9555 9.70624 83.4812 11.1806 83.4812 12.9935V29.4296H79.8915C80.0756 28.9135 80.1939 28.3645 80.1939 27.786C80.1898 26.569 79.7328 25.3972 78.9119 24.4987C79.7328 23.6003 80.1898 22.4285 80.1939 21.2115V14.6371C80.1939 11.9185 77.9816 9.70624 75.2631 9.70624H45.6781C42.9595 9.70624 40.7472 11.9185 40.7472 14.6371V21.2115C40.7472 22.4787 41.242 23.6243 42.0293 24.4987C41.2078 25.3968 40.7507 26.5689 40.7472 27.786C40.7472 28.3645 40.8656 28.9135 41.0497 29.4296H39.1036C36.3851 29.4296 34.1728 31.6419 34.1728 34.3604V49.2368C33.6271 49.2006 33.0847 49.1529 32.5292 49.1529C21.8046 49.1529 12.2339 56.2188 9.02553 66.3977C8.66638 66.7035 8.37761 67.0833 8.17902 67.5111C7.98043 67.9389 7.87672 68.4046 7.875 68.8763V78.738C7.875 79.7307 8.32699 80.6133 9.02717 81.2165C12.2355 91.3954 21.8046 98.4613 32.5292 98.4613C33.0847 98.4613 33.6271 98.4136 34.1728 98.3775V106.679C34.1728 109.398 36.3851 111.61 39.1036 111.61H104.848C107.567 111.61 109.779 109.398 109.779 106.679V34.3604C109.779 31.6419 107.567 29.4296 104.848 29.4296ZM86.7684 12.9935H99.9173V29.4296H97.3105L91.2176 23.3367L88.8936 25.6608L92.6624 29.4296H86.7684V12.9935ZM44.0345 14.6371C44.0345 13.7314 44.7708 12.9935 45.6781 12.9935H75.2631C76.1704 12.9935 76.9067 13.7314 76.9067 14.6371V21.2115C76.9067 22.1172 76.1704 22.8551 75.2631 22.8551H45.6781C44.7708 22.8551 44.0345 22.1172 44.0345 21.2115V14.6371ZM44.0345 27.786C44.0345 26.8803 44.7708 26.1424 45.6781 26.1424H75.2631C75.6863 26.1613 76.0859 26.3427 76.3787 26.6489C76.6714 26.9551 76.8348 27.3624 76.8348 27.786C76.8348 28.2096 76.6714 28.6169 76.3787 28.9231C76.0859 29.2292 75.6863 29.4107 75.2631 29.4296H45.6781C44.7708 29.4296 44.0345 28.6916 44.0345 27.786ZM39.1036 32.7168H104.848C105.755 32.7168 106.492 33.4548 106.492 34.3604V42.5785H37.46V34.3604C37.46 33.4548 38.1964 32.7168 39.1036 32.7168ZM14.4511 73.8383L14.4527 78.738H11.1622V68.8763H14.4494L14.4511 73.7759L14.4494 73.8071L14.4511 73.8383ZM12.819 82.0252H14.4494C15.0937 82.0252 15.6904 81.8329 16.1966 81.5107C19.0976 87.6332 25.317 91.8869 32.5292 91.8869C42.4977 91.8869 50.6089 83.7756 50.6089 73.8071C50.6089 63.8386 42.4977 55.7274 32.5292 55.7274C25.317 55.7274 19.0976 59.981 16.1966 66.1035C15.6754 65.7686 15.069 65.59 14.4494 65.5891H12.819C16.0996 57.7457 23.8789 52.4402 32.5292 52.4402C44.3106 52.4402 53.8961 62.0257 53.8961 73.8071C53.8961 85.5885 44.3106 95.1741 32.5292 95.1741C23.8789 95.1741 16.0996 89.8685 12.819 82.0252ZM32.5292 59.0146C40.6864 59.0146 47.3217 65.6499 47.3217 73.8071C47.3217 81.9644 40.6864 88.5996 32.5292 88.5996C24.3719 88.5996 17.7367 81.9644 17.7367 73.8071C17.7367 65.6499 24.3719 59.0146 32.5292 59.0146ZM81.7948 99.6316L80.1841 85.1316L76.9166 85.4948L78.4501 99.293L74.987 101.602C74.4429 101.965 73.6195 101.528 73.6195 100.869V82.0252H70.3323V97.4538C67.7456 96.5207 64.9151 96.5149 62.3246 97.4373L63.5228 81.8608C63.6421 80.3181 64.309 78.8689 65.4031 77.7748C66.2824 76.8988 67.811 76.8988 68.6903 77.7748L68.7708 77.8553L66.4007 78.8711L67.6943 81.892L77.3078 77.7731C78.3511 77.3238 79.4754 77.0928 80.6114 77.0943C81.4148 77.0954 82.1942 77.3682 82.8229 77.8683C83.4517 78.3684 83.8928 79.0665 84.0745 79.849L88.3545 98.3956C88.4826 98.9518 88.3986 99.5358 88.1189 100.033C87.8393 100.531 87.3841 100.906 86.8423 101.086L85.2497 101.615C84.0778 102.015 82.7054 101.451 82.1433 100.325L81.7948 99.6316ZM86.3838 77.05C85.73 75.9752 84.7914 75.1025 83.6718 74.5287C82.7208 74.0558 81.6735 73.8089 80.6114 73.8071C79.0204 73.8071 77.4721 74.1243 76.0093 74.7522L72.0235 76.4599L71.0127 75.4507C68.8941 73.3321 65.196 73.3321 63.0774 75.4507C61.4297 77.1001 60.4249 79.2834 60.2438 81.6077L60.16 82.6958C58.2272 80.1356 57.1821 77.0149 57.1834 73.8071C57.1834 65.6499 63.8186 59.0146 71.9759 59.0146C80.1331 59.0146 86.7684 65.6499 86.7684 73.8071C86.7684 74.9034 86.6221 75.9882 86.3838 77.05ZM59.8181 87.1532L59.5107 91.1489C57.415 89.6273 55.612 87.739 54.1887 85.5754C54.8314 84.3969 55.359 83.1494 55.8044 81.8657C56.804 83.8612 58.1649 85.654 59.8181 87.1532ZM87.9797 82.1567C89.334 79.5813 90.0461 76.7169 90.0556 73.8071C90.0556 63.8386 81.9444 55.7274 71.9759 55.7274C64.8985 55.7274 58.776 59.8249 55.8093 65.7616C55.3729 64.4773 54.8303 63.2315 54.1871 62.0372C58.1613 56.0265 64.7259 52.4402 71.9759 52.4402C83.7573 52.4402 93.3428 62.0257 93.3428 73.8071C93.3428 78.5194 91.811 82.9735 89.0185 86.6585L87.9797 82.1567ZM104.848 108.323H39.1036C38.6677 108.323 38.2497 108.15 37.9414 107.842C37.6332 107.533 37.46 107.115 37.46 106.679V97.9649C43.4839 96.7372 48.6941 93.2905 52.2525 88.5372C54.15 91.0712 56.517 93.2167 59.2247 94.8569L58.6084 102.876L62.4807 100.937C63.7072 100.328 65.0617 100.021 66.4309 100.043C67.8001 100.065 69.1441 100.415 70.3503 101.063C70.3997 102.131 70.858 103.139 71.6302 103.879C72.4025 104.618 73.4296 105.033 74.4988 105.036C75.3239 105.036 76.1227 104.794 76.8097 104.336L79.599 102.475C80.1338 103.267 80.8553 103.914 81.6998 104.361C82.5443 104.807 83.4857 105.039 84.441 105.036C85.0755 105.036 85.7 104.934 86.2934 104.733L87.8828 104.204C89.2007 103.766 90.3078 102.852 90.9872 101.64C91.6666 100.429 91.8695 99.0074 91.5562 97.6543L89.9389 90.6492C94.2468 86.0652 96.6301 80.1334 96.6301 73.8071C96.6301 60.2128 85.5702 49.1529 71.9759 49.1529C64.0833 49.1529 56.876 52.8165 52.2345 59.0524C48.676 54.3122 43.474 50.8754 37.46 49.6493V45.8657H106.492V106.679C106.492 107.115 106.319 107.533 106.01 107.842C105.702 108.15 105.284 108.323 104.848 108.323Z" fill="black"/>
<path d="M52.2522 16.2807H73.6192V19.5679H52.2522V16.2807ZM88.8834 17.451L91.2075 15.1269L99.4256 23.345L97.0998 25.6674L88.8834 17.451ZM44.0342 36.0041H47.3214V39.2913H44.0342V36.0041ZM50.6086 36.0041H53.8959V39.2913H50.6086V36.0041ZM57.1831 36.0041H60.4703V39.2913H57.1831V36.0041ZM70.332 36.0041H80.1936V39.2913H70.332V36.0041ZM83.4809 36.0041H96.6298V39.2913H83.4809V36.0041Z" fill="#9E59FF"/>
</svg>
