<svg width="116" height="116" viewBox="0 0 116 116" fill="none" xmlns="http://www.w3.org/2000/svg">
<path d="M64.7505 98.2147C64.7505 102.068 61.627 105.191 57.7739 105.191C53.9209 105.191 50.7974 102.068 50.7974 98.2147C50.7974 94.3617 53.9209 91.2382 57.7739 91.2382C61.627 91.2382 64.7505 94.3617 64.7505 98.2147Z" fill="#9E59FF" stroke="black"/>
<path d="M114.418 35.4272L114.784 35.0863L114.418 35.4272C115.936 37.0558 115.846 39.6065 114.217 41.1247C113.44 41.8488 112.454 42.207 111.47 42.207L111.469 42.207C110.916 42.2077 110.368 42.0942 109.861 41.8736C109.353 41.6529 108.897 41.3299 108.52 40.9247L108.52 40.9242C95.267 26.705 77.3234 18.8713 58.0007 18.8711C38.6765 18.8713 20.7329 26.705 7.48024 40.9242L7.48022 40.9242C5.9623 42.553 3.41153 42.6426 1.78263 41.1248C0.154062 39.6068 0.0643779 37.0558 1.58213 35.4272C16.3803 19.5502 36.4137 10.8088 57.9991 10.8086C79.5864 10.8088 99.6198 19.5502 114.418 35.4272Z" fill="#FFC700" stroke="black"/>
<path d="M92.0682 59.8313L92.0678 59.8308C82.6866 50.3787 70.5883 45.1624 57.9995 45.1629C45.4076 45.1631 33.3093 50.3792 23.9314 59.8304C22.3633 61.4109 19.8109 61.4208 18.2304 59.8526C16.65 58.2845 16.6401 55.7321 18.2083 54.1516C29.1242 43.1503 43.256 37.1006 57.9995 37.1004C72.7396 37.1 86.8712 43.1494 97.7906 54.1512C99.359 55.7315 99.3493 58.2839 97.7692 59.8522L97.7689 59.8526C97.0146 60.6029 95.9936 61.0235 94.9298 61.0223L94.9286 61.0223C94.3967 61.023 93.87 60.9181 93.379 60.7136C92.888 60.5092 92.4424 60.2092 92.0682 59.8313ZM35.896 78.6227L35.8956 78.6223C34.3286 77.0406 34.3405 74.4882 35.922 72.9213C41.7312 67.1659 50.0583 63.5976 57.6241 63.5976H57.9574C65.5229 63.5976 73.8494 67.1656 79.6588 72.9213L80.0107 72.5661L79.6588 72.9213C81.2405 74.4882 81.2524 77.0408 79.6853 78.6222L79.6852 78.6223C78.1185 80.2043 75.5658 80.2157 73.9842 78.6489C69.7056 74.4095 63.4297 71.6601 57.9567 71.6601H57.6246C52.1509 71.6601 45.8754 74.4093 41.5963 78.6489L41.5959 78.6493C40.8421 79.3981 39.8224 79.8177 38.76 79.8163L38.7587 79.8163C38.2263 79.817 37.699 79.7118 37.2076 79.5069C36.7161 79.302 36.2703 79.0014 35.896 78.6227Z" fill="#FFC700" stroke="black"/>
</svg>
