<?xml version="1.0" encoding="UTF-8"?>
<svg version="1.1" xmlns="http://www.w3.org/2000/svg" width="325" height="47">
<path d="M0 0 C107.25 0 214.5 0 325 0 C325 15.51 325 31.02 325 47 C217.75 47 110.5 47 0 47 C0 31.49 0 15.98 0 0 Z " fill="#f4c024" transform="translate(0,0)"/>
<path d="M0 0 C0 0.66 0 1.32 0 2 C-5.30142496 3.71429092 -10.16837683 4.415256 -15.71875 4.7109375 C-16.60333389 4.76375885 -17.48791779 4.8165802 -18.39930725 4.8710022 C-21.43242011 5.04822328 -24.46608819 5.2120601 -27.5 5.375 C-28.57756561 5.43558594 -29.65513123 5.49617188 -30.76535034 5.55859375 C-58.11445494 7.09363858 -85.48773764 8.13722393 -112.85617065 9.25769043 C-146.54952978 10.63835343 -180.21386085 12.21146858 -213.8515625 14.62890625 C-216.46349326 14.8157985 -219.07548183 15.00182824 -221.6875 15.1875 C-222.8427417 15.27 -223.9979834 15.3525 -225.18823242 15.4375 C-236.45728753 16.19069738 -247.71153697 16.20744984 -259 16 C-259 15.01 -259 14.02 -259 13 C-257.90800293 12.98541748 -256.81600586 12.97083496 -255.69091797 12.95581055 C-251.36972332 12.89482103 -247.04890255 12.8178366 -242.72802734 12.73754883 C-240.90843051 12.70562881 -239.08876547 12.67726142 -237.26904297 12.65356445 C-223.84815825 12.47487279 -210.50371981 11.73872518 -197.11768723 10.81546783 C-177.90487622 9.49064677 -158.69564981 8.46990739 -139.453125 7.68359375 C-137.5490431 7.60571279 -137.5490431 7.60571279 -135.6064949 7.52625847 C-127.80317053 7.20894184 -119.99954869 6.8994773 -112.19580078 6.59277344 C-70.6418518 5.01736439 -70.6418518 5.01736439 -29.109375 2.97265625 C-27.82363586 2.90340439 -26.53789673 2.83415253 -25.2131958 2.76280212 C-18.2428225 2.34393372 -11.43111562 1.55680424 -4.54302979 0.40330505 C-2 0 -2 0 0 0 Z " fill="#0943a0" transform="translate(300,18)"/>
<path d="M0 0 C-0.33 0.66 -0.66 1.32 -1 2 C-14.360967 2.75517015 -27.70592637 3.21211032 -41.08582306 3.44555664 C-44.30335009 3.50175042 -47.52078252 3.56196169 -50.73822021 3.62304688 C-57.57541847 3.75215402 -64.41270126 3.87634634 -71.25 4 C-79.17716726 4.14368894 -87.10428636 4.28954159 -95.03133392 4.43969727 C-98.15246506 4.49789015 -101.27364154 4.55277383 -104.39483643 4.60742188 C-115.53530906 4.81182791 -126.65970839 5.16190763 -137.79140377 5.65071964 C-144.59668387 5.94862606 -151.39536537 6.16569427 -158.20703125 6.24609375 C-160.27759311 6.27757192 -162.3481496 6.30940509 -164.41870117 6.34155273 C-165.46206635 6.35693085 -166.50543152 6.37230896 -167.58041382 6.38815308 C-185.62712022 6.66368702 -203.65714415 7.11437023 -221.6875 7.9375 C-222.98634628 7.99392166 -222.98634628 7.99392166 -224.31143188 8.05148315 C-233.76063886 8.46852488 -243.11846418 9.1113562 -252.49992371 10.34275818 C-256.02764832 10.8026778 -259.44145129 11.10255555 -263 11 C-263 10.34 -263 9.68 -263 9 C-245.97390785 4.35652032 -226.77519401 5.57731586 -209.25 5 C-207.94663696 4.95642365 -206.64327393 4.91284729 -205.30041504 4.86795044 C-184.21897537 4.16545752 -163.13766205 3.67952785 -142.04736328 3.32421875 C-130.73547668 3.13292965 -119.43185423 2.89650475 -108.125 2.5 C-92.31124695 1.94590839 -76.49316444 1.70576999 -60.6723938 1.43850708 C-44.83735011 1.16911194 -29.01623887 0.81674024 -13.19140625 0.18359375 C-8.78973145 0.01077605 -4.40476601 -0.03675013 0 0 Z " fill="#0943a0" transform="translate(282,15)"/>
<path d="M0 0 C0 0.33 0 0.66 0 1 C-0.86536377 1.01981934 -1.73072754 1.03963867 -2.62231445 1.06005859 C-20.39034384 1.47982148 -38.15115163 2.02214062 -55.90682983 2.81402588 C-57.73472014 2.89519234 -59.5627026 2.97431382 -61.39077759 3.0512085 C-71.1646823 3.46602628 -80.84738857 4.06186353 -90.55046082 5.34275818 C-94.06201705 5.80416871 -97.45725707 6.10190343 -101 6 C-101 5.34 -101 4.68 -101 4 C-92.42402876 1.66109875 -83.83317803 1.34482539 -75 1 C-73.90187988 0.95488281 -72.80375977 0.90976562 -71.67236328 0.86328125 C-47.78155063 -0.08606504 -23.90646798 -0.11386535 0 0 Z " fill="#0943a0" transform="translate(120,20)"/>
</svg>
